<svg width="372" height="159" viewBox="0 0 372 159" fill="none" xmlns="http://www.w3.org/2000/svg">
<g clip-path="url(#clip0_1_3)">
<mask id="mask0_1_3" style="mask-type:luminance" maskUnits="userSpaceOnUse" x="24" y="66" width="79" height="94">
<path d="M24 66.9583H102.667V159.333H24V66.9583Z" fill="white"/>
</mask>
<g mask="url(#mask0_1_3)">
<path d="M61.6406 88.9271C61.1719 86.3906 60.4688 84.0208 60.3177 81.6146C60.0521 77.1458 62.3802 74.099 66.5677 72.5417C67.7969 72.0885 68.8386 71.125 70.2448 70.8958C71.3386 70.7083 71.9479 71.0104 72.1927 72.0729C72.4792 73.2448 72.0208 74 70.849 74.099C69.8802 74.1719 68.8958 74.0573 67.9115 74.0781C67.6094 74.0781 67.3073 74.1927 67.0052 74.2865C63.4792 75.4635 61.5677 78.3958 62.0573 82.2969C62.2865 84.1354 62.9688 85.8958 63.4427 87.6979C63.6146 88.3437 63.974 88.4948 64.6563 88.3958C66.8906 88.0573 69.125 87.7708 71.3594 87.5469C72.099 87.4687 72.3281 87.1875 72.4219 86.4844C73.0625 82.4896 76.3594 79.9323 80.3958 80.2344C84.1094 80.5208 87.0417 83.7187 87.099 87.526C87.1563 91.3542 84.1823 94.5729 80.2604 94.9531C76.9479 95.276 74.1458 93.3437 72.5156 89.5729C71.2865 89.6875 70.0156 89.7604 68.7448 89.9115C67.4792 90.0677 66.2292 90.2917 64.8438 90.5C64.9948 90.8594 65.0729 91.1458 65.2031 91.4115C67.0208 95.1406 69.9219 98.0208 72.5886 101.109C72.6667 101.203 72.7604 101.333 72.8386 101.333C74.6563 101.526 75.6406 103.078 77.0417 103.932C81.474 106.656 88.974 105.766 92.5573 102.016C93.1979 101.333 93.6563 100.427 94.1094 99.5729C94.6979 98.4583 95.3229 97.4167 96.5313 96.8437C96.7969 96.7135 97.0625 96.3906 97.1771 96.0885C98.75 92.0365 100.38 87.9635 100.547 83.5469C100.646 80.8958 100.661 78.151 100.151 75.5573C99.2969 71.2396 96.2292 69.099 92.0417 69.5677C90.8906 69.7031 89.7917 70.401 88.6563 70.7448C87.5365 71.0833 87.0052 70.7448 86.7031 69.6094C86.3802 68.3594 86.8177 67.6562 88.125 67.5417C89.125 67.4687 90.1875 66.9583 91.1146 67.8073C91.1927 67.8854 91.4167 67.8073 91.5729 67.7917C97.5938 67.4844 101.078 70.25 102.177 76.2187C102.938 80.3281 102.422 84.3646 101.589 88.3802C101.063 90.974 100.495 93.5521 99.7917 96.0885C99.4688 97.2448 98.7136 98.2865 98.2761 99.4219C97.6875 100.937 97.3281 102.547 96.6667 104.005C95.0938 107.49 93.2188 110.75 89.6771 112.589C90.375 115.203 91.1563 117.719 91.724 120.276C93.125 126.698 93.2761 133.12 91.0573 139.406C87.7813 148.651 81.1146 154.448 71.7552 156.74C57.7031 160.208 45.0313 156.875 34.6511 146.891C21.5625 134.349 22.0729 114.5 35.3333 101.714C41.4323 95.8437 48.8386 92.3594 56.9063 90.1042C58.5573 89.6458 60.224 89.2708 61.6406 88.9271ZM62.724 90.9167C53.6302 92.7187 44.9948 95.8802 37.8125 102.245C31.5833 107.776 27.7188 114.651 27.4323 123.078C27.0573 134.599 31.9063 143.63 41.5833 149.807C50.1667 155.302 59.599 157.422 69.7136 155.302C81.1719 152.875 88.6719 144.786 90.2656 133.198C91.1146 126.943 90.0156 120.885 88.0677 114.937C87.6875 113.781 87.3073 113.042 85.9427 113.479C85.6406 113.573 85.2448 113.458 84.9011 113.401C82.1354 113.005 79.7708 111.714 77.7813 109.88C75.8698 108.115 74.2188 106.052 72.4011 104.156C71.7188 103.437 70.8281 102.927 70.2448 102.151C69.2761 100.901 68.2344 99.7656 67.4792 98.2656C66.2083 95.7292 64.4063 93.4375 62.724 90.9167ZM73.4271 101.958C73.349 102.094 73.2917 102.224 73.2188 102.375C74.0886 103.307 74.9219 104.271 75.8698 105.125C77.5938 106.677 79.2604 108.365 81.1927 109.615C85.5469 112.453 89.2396 111.755 92.1563 107.474C93.6354 105.312 94.599 102.812 95.7969 100.464C96.25 99.5573 96.6458 98.625 97.1406 97.5104C95.3958 97.849 94.8281 99.026 94.1667 100.182C93.5208 101.318 92.8802 102.547 91.9479 103.401C87.8594 107.115 79.9011 107.661 75.5261 103.156C74.9948 102.604 74.1458 102.359 73.4271 101.958ZM74.5417 87.5104C74.5052 90.4427 76.7761 92.8281 79.6771 92.9062C82.5938 92.9635 85.0156 90.651 85.0938 87.7708C85.1511 84.7812 82.8386 82.375 79.8854 82.3385C76.9479 82.2969 74.5781 84.5885 74.5417 87.5104Z" fill="#1082CE"/>
</g>
<path d="M79.8646 83.2865C82.25 83.3021 84.1458 85.2344 84.1458 87.6042C84.1458 90.0104 82.1354 91.9948 79.75 91.9583C77.3281 91.9219 75.4323 89.9323 75.4687 87.4896C75.526 85.1198 77.4583 83.2656 79.8646 83.2865Z" fill="#1082CE"/>
<mask id="mask1_1_3" style="mask-type:luminance" maskUnits="userSpaceOnUse" x="33" y="2" width="18" height="26">
<path d="M33.3333 2H50.6667V27.3333H33.3333V2Z" fill="white"/>
</mask>
<g mask="url(#mask1_1_3)">
<mask id="mask2_1_3" style="mask-type:luminance" maskUnits="userSpaceOnUse" x="-14" y="0" width="112" height="151">
<path d="M-13.3281 4.94792L90.5573 0.104172L97.3542 145.948L-6.53125 150.786L-13.3281 4.94792Z" fill="white"/>
</mask>
<g mask="url(#mask2_1_3)">
<mask id="mask3_1_3" style="mask-type:luminance" maskUnits="userSpaceOnUse" x="-14" y="0" width="112" height="151">
<path d="M-13.3281 4.94792L90.5573 0.104172L97.3542 145.948L-6.53125 150.786L-13.3281 4.94792Z" fill="white"/>
</mask>
<g mask="url(#mask3_1_3)">
<mask id="mask4_1_3" style="mask-type:luminance" maskUnits="userSpaceOnUse" x="-14" y="0" width="112" height="151">
<path d="M-13.3281 4.94792L90.5573 0.104172L97.3542 145.948L-6.53125 150.786L-13.3281 4.94792Z" fill="white"/>
</mask>
<g mask="url(#mask4_1_3)">
<path d="M41.5313 2.42188C41.5313 2.42188 28.3802 19.1198 38.4635 26.5469C33.0313 20.6042 41.8542 9.40625 41.8542 9.40625C41.8542 9.40625 51.6771 19.7396 46.8229 26.1562C56.1719 17.8229 41.5313 2.42188 41.5313 2.42188Z" fill="#80CC28"/>
</g>
</g>
</g>
</g>
<mask id="mask5_1_3" style="mask-type:luminance" maskUnits="userSpaceOnUse" x="62" y="36" width="25" height="20">
<path d="M62.6667 36.6667H86.6667V55.3333H62.6667V36.6667Z" fill="white"/>
</mask>
<g mask="url(#mask5_1_3)">
<mask id="mask6_1_3" style="mask-type:luminance" maskUnits="userSpaceOnUse" x="-14" y="0" width="112" height="151">
<path d="M-13.3281 4.94792L90.5573 0.104172L97.3542 145.948L-6.53125 150.786L-13.3281 4.94792Z" fill="white"/>
</mask>
<g mask="url(#mask6_1_3)">
<mask id="mask7_1_3" style="mask-type:luminance" maskUnits="userSpaceOnUse" x="-14" y="0" width="112" height="151">
<path d="M-13.3281 4.94792L90.5573 0.104172L97.3542 145.948L-6.53125 150.786L-13.3281 4.94792Z" fill="white"/>
</mask>
<g mask="url(#mask7_1_3)">
<mask id="mask8_1_3" style="mask-type:luminance" maskUnits="userSpaceOnUse" x="-14" y="0" width="112" height="151">
<path d="M-13.3281 4.94792L90.5573 0.104172L97.3542 145.948L-6.53125 150.786L-13.3281 4.94792Z" fill="white"/>
</mask>
<g mask="url(#mask8_1_3)">
<path d="M86.2292 37.6511C86.2292 37.6511 65.1667 34.8958 63.9375 47.3594C66.2656 39.6511 80.401 41.5 80.401 41.5C80.401 41.5 76.5521 55.2292 68.5521 54.3438C80.4948 58.1094 86.2292 37.6511 86.2292 37.6511Z" fill="#80CC28"/>
</g>
</g>
</g>
</g>
<mask id="mask9_1_3" style="mask-type:luminance" maskUnits="userSpaceOnUse" x="0" y="40" width="24" height="18">
<path d="M0 40.6667H24V58H0V40.6667Z" fill="white"/>
</mask>
<g mask="url(#mask9_1_3)">
<mask id="mask10_1_3" style="mask-type:luminance" maskUnits="userSpaceOnUse" x="-14" y="0" width="112" height="151">
<path d="M-13.3281 4.94792L90.5573 0.104172L97.3542 145.948L-6.53125 150.786L-13.3281 4.94792Z" fill="white"/>
</mask>
<g mask="url(#mask10_1_3)">
<mask id="mask11_1_3" style="mask-type:luminance" maskUnits="userSpaceOnUse" x="-14" y="0" width="112" height="151">
<path d="M-13.3281 4.94792L90.5573 0.104172L97.3542 145.948L-6.53125 150.786L-13.3281 4.94792Z" fill="white"/>
</mask>
<g mask="url(#mask11_1_3)">
<mask id="mask12_1_3" style="mask-type:luminance" maskUnits="userSpaceOnUse" x="-14" y="0" width="112" height="151">
<path d="M-13.3281 4.94792L90.5573 0.104172L97.3542 145.948L-6.53125 150.786L-13.3281 4.94792Z" fill="white"/>
</mask>
<g mask="url(#mask12_1_3)">
<path d="M0.296875 41.6563C0.296875 41.6563 21.0156 36.9479 23.3958 49.25C20.3646 41.7917 6.45833 44.9479 6.45833 44.9479C6.45833 44.9479 11.5729 58.2604 19.4531 56.6302C7.91146 61.4948 0.296875 41.6563 0.296875 41.6563Z" fill="#80CC28"/>
</g>
</g>
</g>
</g>
<mask id="mask13_1_3" style="mask-type:luminance" maskUnits="userSpaceOnUse" x="0" y="52" width="94" height="98">
<path d="M0 52.6667H93.3333V150H0V52.6667Z" fill="white"/>
</mask>
<g mask="url(#mask13_1_3)">
<mask id="mask14_1_3" style="mask-type:luminance" maskUnits="userSpaceOnUse" x="-14" y="0" width="112" height="151">
<path d="M-13.3281 4.94792L90.5573 0.104172L97.3542 145.948L-6.53125 150.786L-13.3281 4.94792Z" fill="white"/>
</mask>
<g mask="url(#mask14_1_3)">
<mask id="mask15_1_3" style="mask-type:luminance" maskUnits="userSpaceOnUse" x="-14" y="0" width="112" height="151">
<path d="M-13.3281 4.94792L90.5573 0.104172L97.3542 145.948L-6.53125 150.786L-13.3281 4.94792Z" fill="white"/>
</mask>
<g mask="url(#mask15_1_3)">
<mask id="mask16_1_3" style="mask-type:luminance" maskUnits="userSpaceOnUse" x="-14" y="0" width="112" height="151">
<path d="M-13.3281 4.94792L90.5573 0.104172L97.3542 145.948L-6.53125 150.786L-13.3281 4.94792Z" fill="white"/>
</mask>
<g mask="url(#mask16_1_3)">
<path d="M93.0677 53.5885C93.0677 53.5885 79.3281 50.224 67.3854 70.0417C56.4115 88.25 59.7344 97.2656 25.9271 84.5208C-10.2448 70.8854 19.1667 61.4427 19.1667 61.4427C19.1667 61.4427 -1.66667 64.026 1.50521 74.5313C5.13541 86.599 37.7344 101.12 43.9948 111.688C48.2187 118.828 49.026 139.12 37.1823 148.719C37.1823 148.719 62.2083 141.276 69.6615 92.8854C75.5625 54.6042 93.0677 53.5885 93.0677 53.5885Z" fill="#1082CE"/>
</g>
</g>
</g>
</g>
<mask id="mask17_1_3" style="mask-type:luminance" maskUnits="userSpaceOnUse" x="38" y="64" width="21" height="24">
<path d="M38.6667 64.6667H58.6667V87.3333H38.6667V64.6667Z" fill="white"/>
</mask>
<g mask="url(#mask17_1_3)">
<mask id="mask18_1_3" style="mask-type:luminance" maskUnits="userSpaceOnUse" x="-14" y="0" width="112" height="151">
<path d="M-13.3281 4.94792L90.5573 0.104172L97.3542 145.948L-6.53125 150.786L-13.3281 4.94792Z" fill="white"/>
</mask>
<g mask="url(#mask18_1_3)">
<mask id="mask19_1_3" style="mask-type:luminance" maskUnits="userSpaceOnUse" x="-14" y="0" width="112" height="151">
<path d="M-13.3281 4.94792L90.5573 0.104172L97.3542 145.948L-6.53125 150.786L-13.3281 4.94792Z" fill="white"/>
</mask>
<g mask="url(#mask19_1_3)">
<mask id="mask20_1_3" style="mask-type:luminance" maskUnits="userSpaceOnUse" x="-14" y="0" width="112" height="151">
<path d="M-13.3281 4.94792L90.5573 0.104172L97.3542 145.948L-6.53125 150.786L-13.3281 4.94792Z" fill="white"/>
</mask>
<g mask="url(#mask20_1_3)">
<path d="M57.2865 73.4115C55.7969 67.8802 50.6042 64.7083 45.6875 66.3229C40.7708 67.9323 37.9948 73.7188 39.4844 79.25C40.9792 84.776 46.1719 87.9479 51.0885 86.3385C56.0052 84.724 58.7812 78.9375 57.2865 73.4115Z" fill="#4F4C4C"/>
</g>
</g>
</g>
</g>
<mask id="mask21_1_3" style="mask-type:luminance" maskUnits="userSpaceOnUse" x="38" y="66" width="20" height="20">
<path d="M38.6667 66H57.3333V86H38.6667V66Z" fill="white"/>
</mask>
<g mask="url(#mask21_1_3)">
<mask id="mask22_1_3" style="mask-type:luminance" maskUnits="userSpaceOnUse" x="-14" y="0" width="112" height="151">
<path d="M-13.3281 4.94792L90.5573 0.104172L97.3542 145.948L-6.53125 150.786L-13.3281 4.94792Z" fill="white"/>
</mask>
<g mask="url(#mask22_1_3)">
<mask id="mask23_1_3" style="mask-type:luminance" maskUnits="userSpaceOnUse" x="-14" y="0" width="112" height="151">
<path d="M-13.3281 4.94792L90.5573 0.104172L97.3542 145.948L-6.53125 150.786L-13.3281 4.94792Z" fill="white"/>
</mask>
<g mask="url(#mask23_1_3)">
<mask id="mask24_1_3" style="mask-type:luminance" maskUnits="userSpaceOnUse" x="-14" y="0" width="112" height="151">
<path d="M-13.3281 4.94792L90.5573 0.104172L97.3542 145.948L-6.53125 150.786L-13.3281 4.94792Z" fill="white"/>
</mask>
<g mask="url(#mask24_1_3)">
<mask id="mask25_1_3" style="mask-type:luminance" maskUnits="userSpaceOnUse" x="39" y="66" width="19" height="21">
<path d="M39.1302 67.1146L56.5781 66.3021L57.4844 85.7292L40.0312 86.5417L39.1302 67.1146Z" fill="white"/>
</mask>
<g mask="url(#mask25_1_3)">
<mask id="mask26_1_3" style="mask-type:luminance" maskUnits="userSpaceOnUse" x="39" y="66" width="18" height="20">
<path d="M48.8281 85.901C44.9948 86.0781 41.375 83.3281 40.2083 79.0104C38.8385 73.9323 41.3906 68.6146 45.9062 67.1302C46.5833 66.9115 47.2708 66.7865 47.9479 66.7552C51.7812 66.5781 55.401 69.3281 56.5677 73.6458C57.9375 78.724 55.3854 84.0417 50.8698 85.526C50.1875 85.7448 49.5052 85.8698 48.8281 85.901Z" fill="white"/>
</mask>
<g mask="url(#mask26_1_3)">
<mask id="mask27_1_3" style="mask-type:luminance" maskUnits="userSpaceOnUse" x="39" y="66" width="19" height="21">
<path d="M39.1302 67.1146L56.5781 66.3021L57.4844 85.7292L40.0312 86.5417L39.1302 67.1146Z" fill="white"/>
</mask>
<g mask="url(#mask27_1_3)">
<mask id="mask28_1_3" style="mask-type:luminance" maskUnits="userSpaceOnUse" x="39" y="66" width="18" height="20">
<path d="M48.8281 85.901C44.9948 86.0781 41.375 83.3281 40.2083 79.0104C38.8385 73.9323 41.3906 68.6146 45.9062 67.1302C46.5833 66.9115 47.2708 66.7865 47.9479 66.7552C51.7812 66.5781 55.401 69.3281 56.5677 73.6458C57.9375 78.724 55.3854 84.0417 50.8698 85.526C50.1875 85.7448 49.5052 85.8698 48.8281 85.901Z" fill="white"/>
</mask>
<g mask="url(#mask28_1_3)">
<mask id="mask29_1_3" style="mask-type:luminance" maskUnits="userSpaceOnUse" x="38" y="66" width="21" height="21">
<path d="M57.3594 66.3177L38.526 67.1927L39.4167 86.3386L58.25 85.4636L57.3594 66.3177Z" fill="white"/>
</mask>
<g mask="url(#mask29_1_3)">
<path d="M57.4427 65.724L38.2187 66.6198L39.1667 86.9323L58.3906 86.0365L57.4427 65.724Z" fill="url(#paint0_radial_1_3)"/>
</g>
</g>
</g>
</g>
</g>
</g>
</g>
</g>
</g>
<path d="M131.553 82.3404C129.371 82.3404 127.491 81.83 125.907 80.7987C124.334 79.7571 123.136 78.33 122.303 76.5071C121.47 74.6894 121.053 72.6269 121.053 70.3196C121.053 68.0019 121.47 65.9341 122.303 64.1112C123.136 62.2935 124.334 60.8716 125.907 59.8404C127.491 58.7987 129.371 58.2779 131.553 58.2779C134.178 58.2779 136.345 59.0227 138.053 60.5071C139.761 61.981 140.907 63.9758 141.491 66.4862H138.657C138.183 64.7675 137.324 63.4029 136.074 62.4029C134.834 61.3925 133.345 60.8821 131.595 60.8821C129.162 60.8821 127.303 61.7362 126.011 63.4446C124.73 65.1425 124.095 67.4185 124.095 70.2779C124.095 73.1685 124.73 75.4654 126.011 77.1737C127.303 78.8716 129.162 79.7154 131.595 79.7154C133.261 79.7154 134.689 79.2675 135.886 78.3612C137.079 77.4602 137.933 76.2519 138.449 74.7362H141.282C140.657 77.0591 139.501 78.9029 137.824 80.2779C136.157 81.6529 134.064 82.3404 131.553 82.3404Z" fill="#183E9F"/>
<path d="M159.054 75.3196H149.554L147.074 82.1112H144.158L152.908 58.7779H155.658L164.491 82.1112H161.554L159.054 75.3196ZM158.22 73.0071L154.324 62.4446H154.179L150.387 73.0071H158.22Z" fill="#183E9F"/>
<path d="M175.154 72.8196H170.987V82.1112H168.112V58.7779H176.05C177.935 58.7779 179.487 59.1269 180.696 59.8196C181.904 60.5019 182.769 61.3769 183.3 62.4446C183.842 63.5175 184.112 64.6425 184.112 65.8196C184.112 67.4341 183.623 68.8821 182.654 70.1737C181.696 71.4654 180.196 72.2935 178.154 72.6529L184.321 82.1112H181.154L175.154 72.8196ZM170.987 70.3404H175.675C177.258 70.3404 178.592 70.0019 179.675 69.3196C180.769 68.6269 181.321 67.4602 181.321 65.8196C181.321 64.1946 180.769 63.0487 179.675 62.3821C178.592 61.7154 177.258 61.3821 175.675 61.3821H170.987V70.3404Z" fill="#183E9F"/>
<path d="M191.172 61.3821V69.0487H201.276V71.3821H191.172V79.5071H202.651V82.1112H188.276V58.7779H202.651V61.3821H191.172Z" fill="#183E9F"/>
<path d="M224.738 82.3404C222.556 82.3404 220.676 81.83 219.093 80.7987C217.52 79.7571 216.322 78.33 215.488 76.5071C214.655 74.6894 214.238 72.6269 214.238 70.3196C214.238 68.0019 214.655 65.9341 215.488 64.1112C216.322 62.2935 217.52 60.8716 219.093 59.8404C220.676 58.7987 222.556 58.2779 224.738 58.2779C227.363 58.2779 229.53 59.0227 231.238 60.5071C232.947 61.981 234.093 63.9758 234.676 66.4862H231.843C231.369 64.7675 230.509 63.4029 229.259 62.4029C228.02 61.3925 226.53 60.8821 224.78 60.8821C222.348 60.8821 220.488 61.7362 219.197 63.4446C217.915 65.1425 217.28 67.4185 217.28 70.2779C217.28 73.1685 217.915 75.4654 219.197 77.1737C220.488 78.8716 222.348 79.7154 224.78 79.7154C226.447 79.7154 227.874 79.2675 229.072 78.3612C230.264 77.4602 231.119 76.2519 231.634 74.7362H234.468C233.843 77.0591 232.686 78.9029 231.009 80.2779C229.343 81.6529 227.249 82.3404 224.738 82.3404Z" fill="#183E9F"/>
<path d="M248.405 82.3404C246.181 82.3404 244.27 81.8352 242.676 80.8196C241.093 79.7935 239.89 78.3716 239.072 76.5487C238.249 74.731 237.843 72.6633 237.843 70.3404C237.843 68.0383 238.26 65.9654 239.093 64.1321C239.926 62.2987 241.135 60.8716 242.718 59.8404C244.301 58.7987 246.197 58.2779 248.405 58.2779C250.583 58.2779 252.458 58.7987 254.03 59.8404C255.614 60.8716 256.812 62.2935 257.635 64.1112C258.452 65.9341 258.864 68.0227 258.864 70.3821C258.864 72.7154 258.452 74.7883 257.635 76.5904C256.812 78.3821 255.614 79.7935 254.03 80.8196C252.458 81.8352 250.583 82.3404 248.405 82.3404ZM248.364 79.6737C249.905 79.6737 251.239 79.2883 252.364 78.5071C253.499 77.7154 254.369 76.6112 254.968 75.1946C255.562 73.7675 255.864 72.1425 255.864 70.3196C255.864 68.4862 255.562 66.8612 254.968 65.4446C254.369 64.0279 253.499 62.9185 252.364 62.1112C251.239 61.3091 249.905 60.9029 248.364 60.9029C246.833 60.9029 245.499 61.3144 244.364 62.1321C243.239 62.9394 242.369 64.0591 241.76 65.4862C241.161 66.9029 240.864 68.5175 240.864 70.3196C240.864 72.1425 241.161 73.7571 241.76 75.1737C242.369 76.58 243.239 77.6841 244.364 78.4862C245.499 79.2779 246.833 79.6737 248.364 79.6737Z" fill="#183E9F"/>
<path d="M263.131 58.7779H266.36L278.86 77.5071H279.006V58.7779H281.839V82.1112H278.568L266.089 63.6529H265.964V82.1112H263.131V58.7779Z" fill="#183E9F"/>
<path d="M289.723 61.3821V69.0487H299.827V71.3821H289.723V79.5071H301.202V82.1112H286.827V58.7779H301.202V61.3821H289.723Z" fill="#183E9F"/>
<path d="M308.686 61.3821V69.0487H318.791V71.3821H308.686V79.5071H320.166V82.1112H305.791V58.7779H320.166V61.3821H308.686Z" fill="#183E9F"/>
<path d="M334.588 82.3404C332.405 82.3404 330.525 81.83 328.942 80.7987C327.369 79.7571 326.171 78.33 325.338 76.5071C324.504 74.6894 324.088 72.6269 324.088 70.3196C324.088 68.0019 324.504 65.9341 325.338 64.1112C326.171 62.2935 327.369 60.8716 328.942 59.8404C330.525 58.7987 332.405 58.2779 334.588 58.2779C337.213 58.2779 339.379 59.0227 341.088 60.5071C342.796 61.981 343.942 63.9758 344.525 66.4862H341.692C341.218 64.7675 340.358 63.4029 339.108 62.4029C337.869 61.3925 336.379 60.8821 334.629 60.8821C332.197 60.8821 330.338 61.7362 329.046 63.4446C327.765 65.1425 327.129 67.4185 327.129 70.2779C327.129 73.1685 327.765 75.4654 329.046 77.1737C330.338 78.8716 332.197 79.7154 334.629 79.7154C336.296 79.7154 337.723 79.2675 338.921 78.3612C340.114 77.4602 340.968 76.2519 341.483 74.7362H344.317C343.692 77.0591 342.536 78.9029 340.858 80.2779C339.192 81.6529 337.098 82.3404 334.588 82.3404Z" fill="#183E9F"/>
<path d="M364.088 61.3821H357.213V82.1112H354.359V61.3821H347.484V58.7779H364.088V61.3821Z" fill="#183E9F"/>
<path d="M115.357 109.515L115.92 108.203C116.279 108.51 116.711 108.76 117.211 108.953C117.711 109.135 118.19 109.224 118.649 109.224C119.258 109.224 119.8 109.057 120.274 108.724C120.758 108.38 121.003 107.88 121.003 107.224C121.003 106.671 120.815 106.203 120.44 105.828C120.076 105.442 119.633 105.135 119.107 104.911C118.576 104.677 118.055 104.432 117.545 104.182C117.029 103.932 116.586 103.578 116.211 103.119C115.847 102.661 115.67 102.093 115.67 101.411C115.67 100.468 116.029 99.7236 116.753 99.1819C117.472 98.6402 118.326 98.3694 119.315 98.3694C120.357 98.3694 121.357 98.6611 122.315 99.2444L121.586 100.307C120.836 99.7809 120.071 99.5152 119.295 99.5152C118.68 99.5152 118.19 99.6715 117.815 99.9736C117.451 100.265 117.274 100.703 117.274 101.286C117.274 101.619 117.368 101.921 117.565 102.182C117.758 102.432 118.008 102.656 118.315 102.849C118.633 103.031 118.982 103.203 119.357 103.369C119.732 103.536 120.112 103.724 120.503 103.932C120.888 104.14 121.237 104.38 121.545 104.64C121.847 104.89 122.097 105.218 122.295 105.619C122.487 106.026 122.586 106.489 122.586 107.015C122.586 108.099 122.201 108.932 121.44 109.515C120.675 110.088 119.722 110.369 118.586 110.369C117.545 110.369 116.467 110.088 115.357 109.515Z" fill="#183E9F"/>
<path d="M127.78 109.182L128.009 110.078C127.368 110.255 126.842 110.349 126.426 110.349C125.769 110.349 125.301 110.182 125.009 109.849C124.728 109.505 124.592 108.984 124.592 108.286V103.244H123.405V102.432C124.332 102.421 124.952 101.593 125.259 99.9527H126.28C126.04 100.911 125.926 101.671 125.926 102.224H128.009L127.717 103.244H125.926V108.328C125.926 108.661 125.988 108.911 126.113 109.078C126.238 109.244 126.457 109.328 126.78 109.328C127.014 109.328 127.348 109.281 127.78 109.182Z" fill="#183E9F"/>
<path d="M130.949 110.182H129.616V104.432C129.616 103.489 129.449 102.765 129.116 102.265L130.554 102.078C130.746 102.552 130.866 103.052 130.908 103.578C131.199 103.135 131.58 102.776 132.054 102.494C132.522 102.218 133.017 102.078 133.533 102.078L133.199 103.494C132.335 103.494 131.585 103.968 130.949 104.911V110.182Z" fill="#183E9F"/>
<path d="M140.408 108.536L140.992 109.494C140.252 110.093 139.356 110.39 138.304 110.39C137.148 110.39 136.247 110.01 135.596 109.244C134.94 108.468 134.617 107.484 134.617 106.286C134.617 105.567 134.731 104.89 134.971 104.265C135.205 103.64 135.596 103.114 136.138 102.682C136.679 102.255 137.325 102.036 138.075 102.036C138.992 102.036 139.731 102.317 140.304 102.869C140.872 103.411 141.158 104.14 141.158 105.057C141.158 105.739 140.888 106.078 140.346 106.078H136.013V106.244C136.013 107.01 136.221 107.703 136.638 108.328C137.054 108.953 137.622 109.265 138.346 109.265C138.69 109.265 139.054 109.203 139.429 109.078C139.815 108.942 140.143 108.76 140.408 108.536ZM136.117 105.099H139.45C139.575 105.099 139.648 105.078 139.679 105.036C139.721 104.984 139.742 104.89 139.742 104.765C139.742 104.281 139.601 103.869 139.325 103.536C139.044 103.203 138.669 103.036 138.2 103.036C137.684 103.036 137.231 103.244 136.846 103.661C136.455 104.078 136.21 104.557 136.117 105.099Z" fill="#183E9F"/>
<path d="M149.5 109.015L149.771 109.849C149.698 109.88 149.583 109.927 149.417 109.994C149.25 110.067 149.114 110.119 149.021 110.161C148.922 110.203 148.797 110.234 148.646 110.265C148.489 110.307 148.359 110.328 148.25 110.328C147.927 110.328 147.672 110.229 147.479 110.036C147.281 109.828 147.156 109.567 147.104 109.244C146.396 109.984 145.594 110.349 144.708 110.349C144.068 110.349 143.542 110.161 143.125 109.786C142.719 109.411 142.521 108.906 142.521 108.265C142.521 106.463 144.042 105.552 147.083 105.536V104.682C147.083 103.614 146.635 103.078 145.75 103.078C145.333 103.078 144.906 103.171 144.479 103.349C144.062 103.515 143.719 103.739 143.458 104.015L142.812 103.078C143.672 102.385 144.687 102.036 145.854 102.036C146.687 102.036 147.318 102.265 147.75 102.724C148.177 103.171 148.396 103.817 148.396 104.661V108.64C148.396 108.849 148.417 109.005 148.458 109.099C148.51 109.198 148.609 109.244 148.75 109.244C148.885 109.244 149.135 109.171 149.5 109.015ZM147.083 107.078V106.557C146.677 106.557 146.338 106.573 146.062 106.599C145.781 106.63 145.448 106.692 145.062 106.786C144.687 106.885 144.396 107.057 144.187 107.307C143.979 107.546 143.875 107.849 143.875 108.224C143.875 108.557 143.984 108.817 144.208 108.994C144.443 109.161 144.755 109.244 145.146 109.244C145.687 109.244 146.146 109.026 146.521 108.578C146.896 108.135 147.083 107.635 147.083 107.078Z" fill="#183E9F"/>
<path d="M161.675 110.182H160.341V105.307C160.341 105.015 160.326 104.776 160.3 104.578C160.268 104.369 160.216 104.156 160.133 103.932C160.06 103.698 159.93 103.526 159.737 103.411C159.539 103.286 159.3 103.224 159.008 103.224C158.409 103.224 157.727 103.588 156.966 104.307C156.977 104.531 156.987 104.718 156.987 104.869V110.182H155.675V105.307C155.675 105.005 155.659 104.755 155.633 104.557C155.617 104.349 155.56 104.135 155.466 103.911C155.383 103.692 155.242 103.526 155.05 103.411C154.867 103.286 154.633 103.224 154.341 103.224C153.768 103.224 153.097 103.578 152.321 104.286V110.182H150.987V104.411C150.987 103.552 150.821 102.843 150.487 102.286L151.946 102.119C152.097 102.484 152.196 102.849 152.237 103.224C153.055 102.432 153.831 102.036 154.571 102.036C155.597 102.036 156.326 102.484 156.758 103.369C157.643 102.484 158.472 102.036 159.237 102.036C160.081 102.036 160.701 102.296 161.091 102.807C161.477 103.307 161.675 103.994 161.675 104.869V110.182Z" fill="#183E9F"/>
<path d="M165.647 110.182H164.335V98.9111C164.335 98.9111 164.314 98.8434 164.272 98.7027C164.241 98.5673 164.21 98.4215 164.168 98.2652C164.137 98.0986 164.126 98.01 164.126 97.9944H165.647V110.182Z" fill="#183E9F"/>
<path d="M169.955 99.5569C169.955 99.8382 169.856 100.073 169.663 100.265C169.481 100.448 169.252 100.536 168.976 100.536C168.71 100.536 168.481 100.442 168.288 100.244C168.106 100.052 168.017 99.8225 168.017 99.5569C168.017 99.2965 168.106 99.0673 168.288 98.8694C168.481 98.6767 168.71 98.5777 168.976 98.5777C169.236 98.5777 169.465 98.6767 169.663 98.8694C169.856 99.0673 169.955 99.2965 169.955 99.5569ZM169.663 110.182H168.351V103.182C168.351 103.171 168.33 103.093 168.288 102.953C168.257 102.802 168.226 102.651 168.184 102.494C168.153 102.343 168.142 102.255 168.142 102.224H169.663V110.182Z" fill="#183E9F"/>
<path d="M178.429 110.182H177.117V105.307C177.117 105.057 177.106 104.859 177.096 104.703C177.096 104.536 177.065 104.359 177.012 104.161C176.971 103.953 176.898 103.786 176.804 103.661C176.721 103.536 176.585 103.432 176.408 103.349C176.242 103.265 176.033 103.224 175.783 103.224C175.075 103.224 174.346 103.578 173.596 104.286V110.182H172.283V104.557C172.283 103.531 172.106 102.776 171.762 102.286L173.221 102.099C173.387 102.505 173.492 102.885 173.533 103.244C174.325 102.442 175.148 102.036 176.012 102.036C176.846 102.036 177.455 102.296 177.846 102.807C178.231 103.307 178.429 103.994 178.429 104.869V110.182Z" fill="#183E9F"/>
<path d="M182.723 99.5569C182.723 99.8382 182.624 100.073 182.431 100.265C182.249 100.448 182.02 100.536 181.744 100.536C181.478 100.536 181.249 100.442 181.056 100.244C180.874 100.052 180.785 99.8225 180.785 99.5569C180.785 99.2965 180.874 99.0673 181.056 98.8694C181.249 98.6767 181.478 98.5777 181.744 98.5777C182.004 98.5777 182.233 98.6767 182.431 98.8694C182.624 99.0673 182.723 99.2965 182.723 99.5569ZM182.431 110.182H181.119V103.182C181.119 103.171 181.098 103.093 181.056 102.953C181.025 102.802 180.994 102.651 180.952 102.494C180.921 102.343 180.91 102.255 180.91 102.224H182.431V110.182Z" fill="#183E9F"/>
<path d="M191.197 110.182H189.885V105.307C189.885 105.057 189.874 104.859 189.864 104.703C189.864 104.536 189.833 104.359 189.78 104.161C189.739 103.953 189.666 103.786 189.572 103.661C189.489 103.536 189.353 103.432 189.176 103.349C189.01 103.265 188.801 103.224 188.551 103.224C187.843 103.224 187.114 103.578 186.364 104.286V110.182H185.051V104.557C185.051 103.531 184.874 102.776 184.53 102.286L185.989 102.099C186.155 102.505 186.26 102.885 186.301 103.244C187.093 102.442 187.916 102.036 188.78 102.036C189.614 102.036 190.223 102.296 190.614 102.807C190.999 103.307 191.197 103.994 191.197 104.869V110.182Z" fill="#183E9F"/>
<path d="M200.074 103.182H198.366C198.71 103.64 198.887 104.177 198.887 104.786C198.887 105.552 198.605 106.203 198.053 106.744C197.496 107.286 196.835 107.557 196.074 107.557C195.991 107.557 195.876 107.552 195.741 107.536C195.616 107.51 195.522 107.494 195.47 107.494C195.314 107.494 195.168 107.599 195.032 107.807C194.892 108.015 194.824 108.203 194.824 108.369C194.824 108.552 194.876 108.692 194.991 108.786C195.1 108.885 195.21 108.942 195.324 108.953C195.434 108.968 195.595 108.974 195.803 108.974C195.97 108.974 196.225 108.968 196.574 108.953C196.934 108.927 197.189 108.911 197.345 108.911C199.012 108.911 199.845 109.474 199.845 110.599C199.845 111.692 199.439 112.515 198.637 113.057C197.829 113.599 196.866 113.869 195.741 113.869C195.001 113.869 194.335 113.703 193.741 113.369C193.157 113.036 192.866 112.526 192.866 111.849C192.866 111.151 193.272 110.52 194.095 109.953C193.605 109.718 193.366 109.328 193.366 108.786C193.366 108.76 193.428 108.651 193.553 108.453C193.996 107.859 194.303 107.401 194.47 107.078C194.079 106.828 193.772 106.505 193.553 106.099C193.345 105.682 193.241 105.255 193.241 104.807C193.241 104.046 193.517 103.39 194.074 102.849C194.626 102.307 195.288 102.036 196.053 102.036C196.262 102.036 196.559 102.078 196.949 102.161C197.335 102.234 197.621 102.265 197.803 102.265C198.345 102.265 199.199 102.182 200.366 102.015L200.074 103.182ZM196.053 106.599C196.439 106.599 196.772 106.427 197.053 106.078C197.345 105.734 197.491 105.307 197.491 104.807C197.491 104.307 197.345 103.885 197.053 103.536C196.772 103.177 196.449 102.994 196.074 102.994C195.668 102.994 195.329 103.171 195.053 103.515C194.772 103.864 194.637 104.286 194.637 104.786C194.637 105.286 194.772 105.718 195.053 106.078C195.329 106.427 195.663 106.599 196.053 106.599ZM195.053 110.224C194.829 110.39 194.637 110.599 194.47 110.849C194.314 111.099 194.241 111.338 194.241 111.578C194.241 111.937 194.428 112.224 194.803 112.432C195.178 112.651 195.564 112.765 195.97 112.765C196.647 112.765 197.262 112.625 197.803 112.349C198.345 112.067 198.616 111.64 198.616 111.057C198.616 110.859 198.564 110.703 198.47 110.578C198.371 110.453 198.23 110.359 198.053 110.307C197.871 110.25 197.704 110.213 197.553 110.203C197.397 110.187 197.21 110.182 196.991 110.182C196.335 110.182 195.689 110.192 195.053 110.224Z" fill="#183E9F"/>
<path d="M212.881 108.182L213.569 109.244C213.137 109.609 212.59 109.885 211.923 110.078C211.256 110.27 210.621 110.369 210.027 110.369C208.329 110.369 206.996 109.796 206.027 108.64C205.069 107.474 204.59 106.036 204.59 104.328C204.59 102.593 205.074 101.171 206.048 100.057C207.017 98.9319 208.35 98.3694 210.048 98.3694C210.683 98.3694 211.34 98.484 212.006 98.7027C212.673 98.9267 213.183 99.2392 213.548 99.6402L212.715 100.557C212.407 100.239 211.996 99.984 211.485 99.7861C210.97 99.5934 210.485 99.4944 210.027 99.4944C209.36 99.4944 208.777 99.6402 208.277 99.9319C207.777 100.213 207.381 100.593 207.09 101.078C206.798 101.567 206.579 102.088 206.444 102.64C206.303 103.198 206.235 103.796 206.235 104.432C206.235 105.073 206.303 105.671 206.444 106.224C206.579 106.765 206.798 107.265 207.09 107.724C207.392 108.171 207.798 108.526 208.298 108.786C208.808 109.052 209.392 109.182 210.048 109.182C210.532 109.182 211.038 109.093 211.569 108.911C212.095 108.734 212.532 108.489 212.881 108.182Z" fill="#183E9F"/>
<path d="M221.532 109.015L221.803 109.849C221.73 109.88 221.615 109.927 221.449 109.994C221.282 110.067 221.147 110.119 221.053 110.161C220.954 110.203 220.829 110.234 220.678 110.265C220.522 110.307 220.391 110.328 220.282 110.328C219.959 110.328 219.704 110.229 219.511 110.036C219.313 109.828 219.188 109.567 219.136 109.244C218.428 109.984 217.626 110.349 216.74 110.349C216.1 110.349 215.574 110.161 215.157 109.786C214.751 109.411 214.553 108.906 214.553 108.265C214.553 106.463 216.074 105.552 219.115 105.536V104.682C219.115 103.614 218.667 103.078 217.782 103.078C217.365 103.078 216.938 103.171 216.511 103.349C216.094 103.515 215.751 103.739 215.49 104.015L214.844 103.078C215.704 102.385 216.719 102.036 217.886 102.036C218.719 102.036 219.35 102.265 219.782 102.724C220.209 103.171 220.428 103.817 220.428 104.661V108.64C220.428 108.849 220.449 109.005 220.49 109.099C220.542 109.198 220.641 109.244 220.782 109.244C220.917 109.244 221.167 109.171 221.532 109.015ZM219.115 107.078V106.557C218.709 106.557 218.371 106.573 218.094 106.599C217.813 106.63 217.48 106.692 217.094 106.786C216.719 106.885 216.428 107.057 216.219 107.307C216.011 107.546 215.907 107.849 215.907 108.224C215.907 108.557 216.016 108.817 216.24 108.994C216.475 109.161 216.787 109.244 217.178 109.244C217.719 109.244 218.178 109.026 218.553 108.578C218.928 108.135 219.115 107.635 219.115 107.078Z" fill="#183E9F"/>
<path d="M224.374 110.182H223.04V104.432C223.04 103.489 222.874 102.765 222.54 102.265L223.978 102.078C224.17 102.552 224.29 103.052 224.332 103.578C224.624 103.135 225.004 102.776 225.478 102.494C225.946 102.218 226.441 102.078 226.957 102.078L226.624 103.494C225.759 103.494 225.009 103.968 224.374 104.911V110.182Z" fill="#183E9F"/>
<path d="M233.833 108.536L234.416 109.494C233.676 110.093 232.78 110.39 231.728 110.39C230.572 110.39 229.671 110.01 229.02 109.244C228.364 108.468 228.041 107.484 228.041 106.286C228.041 105.567 228.155 104.89 228.395 104.265C228.629 103.64 229.02 103.114 229.562 102.682C230.103 102.255 230.749 102.036 231.499 102.036C232.416 102.036 233.155 102.317 233.728 102.869C234.296 103.411 234.583 104.14 234.583 105.057C234.583 105.739 234.312 106.078 233.77 106.078H229.437V106.244C229.437 107.01 229.645 107.703 230.062 108.328C230.478 108.953 231.046 109.265 231.77 109.265C232.114 109.265 232.478 109.203 232.853 109.078C233.239 108.942 233.567 108.76 233.833 108.536ZM229.541 105.099H232.874C232.999 105.099 233.072 105.078 233.103 105.036C233.145 104.984 233.166 104.89 233.166 104.765C233.166 104.281 233.025 103.869 232.749 103.536C232.468 103.203 232.093 103.036 231.624 103.036C231.109 103.036 230.655 103.244 230.27 103.661C229.879 104.078 229.635 104.557 229.541 105.099Z" fill="#183E9F"/>
<path d="M235.987 111.661C236.013 111.63 236.07 111.567 236.153 111.474C236.247 111.39 236.325 111.317 236.382 111.265C236.434 111.208 236.497 111.13 236.57 111.036C236.638 110.953 236.684 110.859 236.716 110.765C236.757 110.682 236.778 110.604 236.778 110.536C236.778 110.411 236.638 110.224 236.362 109.974C236.096 109.724 235.966 109.453 235.966 109.161C235.966 108.901 236.059 108.677 236.257 108.494C236.45 108.302 236.684 108.203 236.966 108.203C237.341 108.203 237.632 108.338 237.841 108.599C238.059 108.864 238.174 109.182 238.174 109.557C238.174 110.541 237.622 111.432 236.528 112.224C236.33 112.041 236.153 111.854 235.987 111.661Z" fill="#183E9F"/>
<path d="M251.697 108.182L252.385 109.244C251.953 109.609 251.406 109.885 250.739 110.078C250.072 110.27 249.437 110.369 248.843 110.369C247.145 110.369 245.812 109.796 244.843 108.64C243.885 107.474 243.406 106.036 243.406 104.328C243.406 102.593 243.89 101.171 244.864 100.057C245.833 98.9319 247.166 98.3694 248.864 98.3694C249.499 98.3694 250.156 98.484 250.822 98.7027C251.489 98.9267 251.999 99.2392 252.364 99.6402L251.531 100.557C251.223 100.239 250.812 99.984 250.302 99.7861C249.786 99.5934 249.302 99.4944 248.843 99.4944C248.177 99.4944 247.593 99.6402 247.093 99.9319C246.593 100.213 246.197 100.593 245.906 101.078C245.614 101.567 245.395 102.088 245.26 102.64C245.119 103.198 245.052 103.796 245.052 104.432C245.052 105.073 245.119 105.671 245.26 106.224C245.395 106.765 245.614 107.265 245.906 107.724C246.208 108.171 246.614 108.526 247.114 108.786C247.624 109.052 248.208 109.182 248.864 109.182C249.348 109.182 249.854 109.093 250.385 108.911C250.911 108.734 251.348 108.489 251.697 108.182Z" fill="#183E9F"/>
<path d="M256.952 110.39C255.827 110.39 254.942 109.984 254.306 109.161C253.681 108.343 253.369 107.364 253.369 106.224C253.369 105.073 253.687 104.088 254.327 103.265C254.963 102.448 255.838 102.036 256.952 102.036C258.077 102.036 258.957 102.448 259.598 103.265C260.234 104.073 260.556 105.057 260.556 106.224C260.556 107.38 260.234 108.364 259.598 109.182C258.957 109.989 258.077 110.39 256.952 110.39ZM256.952 109.39C257.463 109.39 257.895 109.218 258.244 108.869C258.588 108.51 258.827 108.109 258.952 107.661C259.077 107.203 259.14 106.724 259.14 106.224C259.14 105.713 259.077 105.234 258.952 104.786C258.827 104.328 258.588 103.927 258.244 103.578C257.895 103.218 257.463 103.036 256.952 103.036C256.437 103.036 256.004 103.218 255.661 103.578C255.312 103.927 255.077 104.328 254.952 104.786C254.827 105.234 254.765 105.713 254.765 106.224C254.765 106.682 254.832 107.14 254.973 107.599C255.109 108.057 255.353 108.474 255.702 108.849C256.046 109.213 256.463 109.39 256.952 109.39Z" fill="#183E9F"/>
<path d="M268.653 110.182H267.341V105.307C267.341 105.057 267.33 104.859 267.32 104.703C267.32 104.536 267.289 104.359 267.237 104.161C267.195 103.953 267.122 103.786 267.028 103.661C266.945 103.536 266.81 103.432 266.632 103.349C266.466 103.265 266.257 103.224 266.007 103.224C265.299 103.224 264.57 103.578 263.82 104.286V110.182H262.507V104.557C262.507 103.531 262.33 102.776 261.987 102.286L263.445 102.099C263.612 102.505 263.716 102.885 263.757 103.244C264.549 102.442 265.372 102.036 266.237 102.036C267.07 102.036 267.679 102.296 268.07 102.807C268.455 103.307 268.653 103.994 268.653 104.869V110.182Z" fill="#183E9F"/>
<path d="M277.405 110.182H276.093V105.307C276.093 105.057 276.082 104.859 276.072 104.703C276.072 104.536 276.041 104.359 275.989 104.161C275.947 103.953 275.874 103.786 275.78 103.661C275.697 103.536 275.562 103.432 275.384 103.349C275.218 103.265 275.009 103.224 274.759 103.224C274.051 103.224 273.322 103.578 272.572 104.286V110.182H271.259V104.557C271.259 103.531 271.082 102.776 270.739 102.286L272.197 102.099C272.364 102.505 272.468 102.885 272.509 103.244C273.301 102.442 274.124 102.036 274.989 102.036C275.822 102.036 276.431 102.296 276.822 102.807C277.207 103.307 277.405 103.994 277.405 104.869V110.182Z" fill="#183E9F"/>
<path d="M285.241 108.536L285.824 109.494C285.084 110.093 284.189 110.39 283.136 110.39C281.98 110.39 281.079 110.01 280.428 109.244C279.772 108.468 279.449 107.484 279.449 106.286C279.449 105.567 279.564 104.89 279.803 104.265C280.038 103.64 280.428 103.114 280.97 102.682C281.511 102.255 282.157 102.036 282.907 102.036C283.824 102.036 284.564 102.317 285.136 102.869C285.704 103.411 285.991 104.14 285.991 105.057C285.991 105.739 285.72 106.078 285.178 106.078H280.845V106.244C280.845 107.01 281.053 107.703 281.47 108.328C281.886 108.953 282.454 109.265 283.178 109.265C283.522 109.265 283.886 109.203 284.261 109.078C284.647 108.942 284.975 108.76 285.241 108.536ZM280.949 105.099H284.282C284.407 105.099 284.48 105.078 284.511 105.036C284.553 104.984 284.574 104.89 284.574 104.765C284.574 104.281 284.433 103.869 284.157 103.536C283.876 103.203 283.501 103.036 283.032 103.036C282.517 103.036 282.064 103.244 281.678 103.661C281.288 104.078 281.043 104.557 280.949 105.099Z" fill="#183E9F"/>
<path d="M292.957 108.578L293.582 109.599C293.067 109.89 292.629 110.093 292.27 110.203C291.921 110.328 291.483 110.39 290.957 110.39C289.884 110.39 289.02 109.968 288.353 109.119C287.686 108.276 287.353 107.307 287.353 106.224C287.353 105.015 287.686 104.015 288.353 103.224C289.03 102.432 289.968 102.036 291.166 102.036C291.983 102.036 292.749 102.307 293.457 102.849L292.749 103.786C292.426 103.526 292.145 103.343 291.895 103.244C291.645 103.135 291.332 103.078 290.957 103.078C290.259 103.078 289.718 103.401 289.332 104.036C288.957 104.661 288.77 105.343 288.77 106.078C288.77 106.567 288.837 107.046 288.978 107.515C289.129 107.974 289.379 108.385 289.728 108.744C290.087 109.109 290.52 109.286 291.02 109.286C291.405 109.286 291.733 109.239 291.999 109.14C292.259 109.031 292.582 108.843 292.957 108.578Z" fill="#183E9F"/>
<path d="M298.532 109.182L298.761 110.078C298.121 110.255 297.595 110.349 297.178 110.349C296.522 110.349 296.053 110.182 295.761 109.849C295.48 109.505 295.345 108.984 295.345 108.286V103.244H294.157V102.432C295.084 102.421 295.704 101.593 296.011 99.9527H297.032C296.793 100.911 296.678 101.671 296.678 102.224H298.761L298.47 103.244H296.678V108.328C296.678 108.661 296.741 108.911 296.866 109.078C296.991 109.244 297.209 109.328 297.532 109.328C297.767 109.328 298.1 109.281 298.532 109.182Z" fill="#183E9F"/>
<path d="M302.035 99.5569C302.035 99.8382 301.936 100.073 301.743 100.265C301.561 100.448 301.332 100.536 301.056 100.536C300.79 100.536 300.561 100.442 300.368 100.244C300.186 100.052 300.098 99.8225 300.098 99.5569C300.098 99.2965 300.186 99.0673 300.368 98.8694C300.561 98.6767 300.79 98.5777 301.056 98.5777C301.316 98.5777 301.545 98.6767 301.743 98.8694C301.936 99.0673 302.035 99.2965 302.035 99.5569ZM301.743 110.182H300.431V103.182C300.431 103.171 300.41 103.093 300.368 102.953C300.337 102.802 300.306 102.651 300.264 102.494C300.233 102.343 300.223 102.255 300.223 102.224H301.743V110.182Z" fill="#183E9F"/>
<path d="M310.509 110.182H309.197V105.307C309.197 105.057 309.186 104.859 309.176 104.703C309.176 104.536 309.145 104.359 309.093 104.161C309.051 103.953 308.978 103.786 308.884 103.661C308.801 103.536 308.666 103.432 308.489 103.349C308.322 103.265 308.114 103.224 307.864 103.224C307.155 103.224 306.426 103.578 305.676 104.286V110.182H304.364V104.557C304.364 103.531 304.186 102.776 303.843 102.286L305.301 102.099C305.468 102.505 305.572 102.885 305.614 103.244C306.405 102.442 307.228 102.036 308.093 102.036C308.926 102.036 309.535 102.296 309.926 102.807C310.311 103.307 310.509 103.994 310.509 104.869V110.182Z" fill="#183E9F"/>
<path d="M319.386 103.182H317.678C318.022 103.64 318.199 104.177 318.199 104.786C318.199 105.552 317.918 106.203 317.366 106.744C316.808 107.286 316.147 107.557 315.386 107.557C315.303 107.557 315.188 107.552 315.053 107.536C314.928 107.51 314.834 107.494 314.782 107.494C314.626 107.494 314.48 107.599 314.345 107.807C314.204 108.015 314.136 108.203 314.136 108.369C314.136 108.552 314.188 108.692 314.303 108.786C314.412 108.885 314.522 108.942 314.636 108.953C314.746 108.968 314.907 108.974 315.116 108.974C315.282 108.974 315.537 108.968 315.886 108.953C316.246 108.927 316.501 108.911 316.657 108.911C318.324 108.911 319.157 109.474 319.157 110.599C319.157 111.692 318.751 112.515 317.949 113.057C317.142 113.599 316.178 113.869 315.053 113.869C314.313 113.869 313.647 113.703 313.053 113.369C312.47 113.036 312.178 112.526 312.178 111.849C312.178 111.151 312.584 110.52 313.407 109.953C312.918 109.718 312.678 109.328 312.678 108.786C312.678 108.76 312.741 108.651 312.866 108.453C313.308 107.859 313.616 107.401 313.782 107.078C313.392 106.828 313.084 106.505 312.866 106.099C312.657 105.682 312.553 105.255 312.553 104.807C312.553 104.046 312.829 103.39 313.386 102.849C313.938 102.307 314.6 102.036 315.366 102.036C315.574 102.036 315.871 102.078 316.261 102.161C316.647 102.234 316.933 102.265 317.116 102.265C317.657 102.265 318.511 102.182 319.678 102.015L319.386 103.182ZM315.366 106.599C315.751 106.599 316.084 106.427 316.366 106.078C316.657 105.734 316.803 105.307 316.803 104.807C316.803 104.307 316.657 103.885 316.366 103.536C316.084 103.177 315.761 102.994 315.386 102.994C314.98 102.994 314.642 103.171 314.366 103.515C314.084 103.864 313.949 104.286 313.949 104.786C313.949 105.286 314.084 105.718 314.366 106.078C314.642 106.427 314.975 106.599 315.366 106.599ZM314.366 110.224C314.142 110.39 313.949 110.599 313.782 110.849C313.626 111.099 313.553 111.338 313.553 111.578C313.553 111.937 313.741 112.224 314.116 112.432C314.491 112.651 314.876 112.765 315.282 112.765C315.959 112.765 316.574 112.625 317.116 112.349C317.657 112.067 317.928 111.64 317.928 111.057C317.928 110.859 317.876 110.703 317.782 110.578C317.683 110.453 317.543 110.359 317.366 110.307C317.183 110.25 317.017 110.213 316.866 110.203C316.709 110.187 316.522 110.182 316.303 110.182C315.647 110.182 315.001 110.192 314.366 110.224Z" fill="#183E9F"/>
<path d="M330.923 110.182H324.548V99.5986C324.548 99.5882 324.527 99.5048 324.485 99.3486C324.454 99.1819 324.423 99.01 324.381 98.8277C324.339 98.6507 324.319 98.5517 324.319 98.5361H326.027V109.078H330.923V110.182Z" fill="#183E9F"/>
<path d="M334.355 99.5569C334.355 99.8382 334.256 100.073 334.063 100.265C333.881 100.448 333.652 100.536 333.376 100.536C333.11 100.536 332.881 100.442 332.688 100.244C332.506 100.052 332.418 99.8225 332.418 99.5569C332.418 99.2965 332.506 99.0673 332.688 98.8694C332.881 98.6767 333.11 98.5777 333.376 98.5777C333.636 98.5777 333.865 98.6767 334.063 98.8694C334.256 99.0673 334.355 99.2965 334.355 99.5569ZM334.063 110.182H332.751V103.182C332.751 103.171 332.73 103.093 332.688 102.953C332.657 102.802 332.626 102.651 332.584 102.494C332.553 102.343 332.543 102.255 332.543 102.224H334.063V110.182Z" fill="#183E9F"/>
<path d="M339.663 110.286H338.434L335.6 102.224H337.017L339.142 108.286L341.246 102.224H342.496L339.663 110.286Z" fill="#183E9F"/>
<path d="M349.193 108.536L349.776 109.494C349.037 110.093 348.141 110.39 347.089 110.39C345.932 110.39 345.031 110.01 344.38 109.244C343.724 108.468 343.401 107.484 343.401 106.286C343.401 105.567 343.516 104.89 343.755 104.265C343.99 103.64 344.38 103.114 344.922 102.682C345.464 102.255 346.109 102.036 346.859 102.036C347.776 102.036 348.516 102.317 349.089 102.869C349.656 103.411 349.943 104.14 349.943 105.057C349.943 105.739 349.672 106.078 349.13 106.078H344.797V106.244C344.797 107.01 345.005 107.703 345.422 108.328C345.839 108.953 346.406 109.265 347.13 109.265C347.474 109.265 347.839 109.203 348.214 109.078C348.599 108.942 348.927 108.76 349.193 108.536ZM344.901 105.099H348.234C348.359 105.099 348.432 105.078 348.464 105.036C348.505 104.984 348.526 104.89 348.526 104.765C348.526 104.281 348.385 103.869 348.109 103.536C347.828 103.203 347.453 103.036 346.984 103.036C346.469 103.036 346.016 103.244 345.63 103.661C345.24 104.078 344.995 104.557 344.901 105.099Z" fill="#183E9F"/>
<path d="M351.409 109.724L351.972 108.744C352.597 109.177 353.159 109.39 353.659 109.39C354.102 109.39 354.482 109.307 354.805 109.14C355.123 108.963 355.284 108.671 355.284 108.265C355.284 107.948 355.149 107.671 354.888 107.432C354.638 107.182 354.326 106.974 353.951 106.807C353.586 106.64 353.227 106.468 352.868 106.286C352.503 106.093 352.191 105.838 351.93 105.515C351.68 105.198 351.555 104.807 351.555 104.349C351.555 103.614 351.826 103.046 352.368 102.64C352.909 102.239 353.566 102.036 354.347 102.036C355.165 102.036 355.878 102.224 356.493 102.599L356.013 103.619C355.513 103.234 355.003 103.036 354.493 103.036C354.076 103.036 353.706 103.13 353.388 103.307C353.066 103.474 352.909 103.755 352.909 104.14C352.909 104.463 353.034 104.739 353.284 104.974C353.545 105.213 353.857 105.411 354.222 105.578C354.597 105.744 354.961 105.927 355.326 106.119C355.701 106.302 356.013 106.557 356.263 106.89C356.524 107.224 356.659 107.619 356.659 108.078C356.659 108.859 356.388 109.442 355.847 109.828C355.316 110.203 354.638 110.39 353.805 110.39C353.081 110.39 352.284 110.171 351.409 109.724Z" fill="#183E9F"/>
</g>
<defs>
<radialGradient id="paint0_radial_1_3" cx="0" cy="0" r="1" gradientUnits="userSpaceOnUse" gradientTransform="translate(47.2243 50.8571) rotate(87.3323) scale(20.7141 20.7098)">
<stop stop-color="white"/>
<stop offset="0.0078125" stop-color="#FEFEFE"/>
<stop offset="0.0195312" stop-color="#FDFDFD"/>
<stop offset="0.0234375" stop-color="#FCFCFC"/>
<stop offset="0.0351562" stop-color="#FBFBFB"/>
<stop offset="0.0390625" stop-color="#FBFBFB"/>
<stop offset="0.0429688" stop-color="#FAFAFA"/>
<stop offset="0.046875" stop-color="#FAFAFA"/>
<stop offset="0.0507812" stop-color="#F9F9F9"/>
<stop offset="0.0546875" stop-color="#F9F8F8"/>
<stop offset="0.0664062" stop-color="#F8F8F8"/>
<stop offset="0.0703125" stop-color="#F8F7F7"/>
<stop offset="0.0742188" stop-color="#F7F7F7"/>
<stop offset="0.078125" stop-color="#F7F6F6"/>
<stop offset="0.0820312" stop-color="#F6F6F6"/>
<stop offset="0.0859375" stop-color="#F6F5F5"/>
<stop offset="0.0898438" stop-color="#F5F5F5"/>
<stop offset="0.09375" stop-color="#F5F4F4"/>
<stop offset="0.0976562" stop-color="#F4F4F4"/>
<stop offset="0.101562" stop-color="#F3F3F3"/>
<stop offset="0.105469" stop-color="#F2F2F2"/>
<stop offset="0.109375" stop-color="#F2F2F2"/>
<stop offset="0.113281" stop-color="#F1F1F1"/>
<stop offset="0.117188" stop-color="#F1F1F1"/>
<stop offset="0.121094" stop-color="#F0F0F0"/>
<stop offset="0.125" stop-color="#F0EFF0"/>
<stop offset="0.128906" stop-color="#EFEFEF"/>
<stop offset="0.132812" stop-color="#EFEEEE"/>
<stop offset="0.136719" stop-color="#EEEEEE"/>
<stop offset="0.140625" stop-color="#EEEDED"/>
<stop offset="0.144531" stop-color="#EDEDED"/>
<stop offset="0.148438" stop-color="#ECECEC"/>
<stop offset="0.152344" stop-color="#ECEBEC"/>
<stop offset="0.15625" stop-color="#EBEBEB"/>
<stop offset="0.160156" stop-color="#EBEBEB"/>
<stop offset="0.164062" stop-color="#EBEAEA"/>
<stop offset="0.167969" stop-color="#EAEAEA"/>
<stop offset="0.171875" stop-color="#EAE9E9"/>
<stop offset="0.175781" stop-color="#E9E9E9"/>
<stop offset="0.179688" stop-color="#E8E8E8"/>
<stop offset="0.183594" stop-color="#E8E7E7"/>
<stop offset="0.1875" stop-color="#E7E7E7"/>
<stop offset="0.191406" stop-color="#E6E6E6"/>
<stop offset="0.195312" stop-color="#E5E5E5"/>
<stop offset="0.199219" stop-color="#E5E4E4"/>
<stop offset="0.203125" stop-color="#E4E4E4"/>
<stop offset="0.207031" stop-color="#E4E3E3"/>
<stop offset="0.210938" stop-color="#E3E2E3"/>
<stop offset="0.214844" stop-color="#E2E2E2"/>
<stop offset="0.21875" stop-color="#E2E1E1"/>
<stop offset="0.222656" stop-color="#E1E1E1"/>
<stop offset="0.226562" stop-color="#E1E0E0"/>
<stop offset="0.230469" stop-color="#E0DFDF"/>
<stop offset="0.234375" stop-color="#DFDFDF"/>
<stop offset="0.238281" stop-color="#DFDFDF"/>
<stop offset="0.242188" stop-color="#DFDEDE"/>
<stop offset="0.246094" stop-color="#DEDDDE"/>
<stop offset="0.25" stop-color="#DDDDDD"/>
<stop offset="0.253906" stop-color="#DDDCDC"/>
<stop offset="0.257812" stop-color="#DCDCDC"/>
<stop offset="0.261719" stop-color="#DCDBDB"/>
<stop offset="0.265625" stop-color="#DBDADA"/>
<stop offset="0.269531" stop-color="#DAD9D9"/>
<stop offset="0.273438" stop-color="#D9D8D8"/>
<stop offset="0.277344" stop-color="#D8D8D8"/>
<stop offset="0.28125" stop-color="#D8D7D7"/>
<stop offset="0.285156" stop-color="#D7D6D7"/>
<stop offset="0.289062" stop-color="#D6D6D6"/>
<stop offset="0.292969" stop-color="#D6D5D5"/>
<stop offset="0.296875" stop-color="#D5D4D5"/>
<stop offset="0.300781" stop-color="#D5D4D4"/>
<stop offset="0.304688" stop-color="#D4D3D3"/>
<stop offset="0.308594" stop-color="#D4D3D3"/>
<stop offset="0.3125" stop-color="#D3D2D2"/>
<stop offset="0.316406" stop-color="#D2D2D2"/>
<stop offset="0.320312" stop-color="#D2D1D1"/>
<stop offset="0.324219" stop-color="#D1D0D1"/>
<stop offset="0.328125" stop-color="#D1D0D0"/>
<stop offset="0.332031" stop-color="#D0CFCF"/>
<stop offset="0.335938" stop-color="#CFCECF"/>
<stop offset="0.339844" stop-color="#CFCECE"/>
<stop offset="0.34375" stop-color="#CECDCD"/>
<stop offset="0.347656" stop-color="#CDCCCD"/>
<stop offset="0.351562" stop-color="#CCCBCC"/>
<stop offset="0.355469" stop-color="#CBCACB"/>
<stop offset="0.359375" stop-color="#CBCACA"/>
<stop offset="0.363281" stop-color="#CAC9C9"/>
<stop offset="0.367188" stop-color="#C9C8C8"/>
<stop offset="0.375" stop-color="#C8C7C7"/>
<stop offset="0.378906" stop-color="#C7C6C6"/>
<stop offset="0.382812" stop-color="#C6C6C6"/>
<stop offset="0.386719" stop-color="#C6C5C6"/>
<stop offset="0.390625" stop-color="#C6C5C5"/>
<stop offset="0.394531" stop-color="#C5C4C4"/>
<stop offset="0.398438" stop-color="#C4C3C3"/>
<stop offset="0.402344" stop-color="#C4C2C3"/>
<stop offset="0.40625" stop-color="#C3C2C2"/>
<stop offset="0.410156" stop-color="#C2C1C2"/>
<stop offset="0.414062" stop-color="#C2C1C1"/>
<stop offset="0.417969" stop-color="#C1C0C0"/>
<stop offset="0.421875" stop-color="#C0BFBF"/>
<stop offset="0.425781" stop-color="#C0BEBF"/>
<stop offset="0.429688" stop-color="#BFBEBE"/>
<stop offset="0.433594" stop-color="#BEBDBD"/>
<stop offset="0.4375" stop-color="#BDBCBC"/>
<stop offset="0.441406" stop-color="#BCBBBB"/>
<stop offset="0.445312" stop-color="#BBBABA"/>
<stop offset="0.449219" stop-color="#BBB9BA"/>
<stop offset="0.453125" stop-color="#BAB9B9"/>
<stop offset="0.457031" stop-color="#B9B8B8"/>
<stop offset="0.460938" stop-color="#B9B8B8"/>
<stop offset="0.464844" stop-color="#B9B7B8"/>
<stop offset="0.46875" stop-color="#B8B7B7"/>
<stop offset="0.472656" stop-color="#B7B6B6"/>
<stop offset="0.476562" stop-color="#B6B5B5"/>
<stop offset="0.480469" stop-color="#B5B4B4"/>
<stop offset="0.484375" stop-color="#B4B3B3"/>
<stop offset="0.488281" stop-color="#B4B2B3"/>
<stop offset="0.492188" stop-color="#B3B1B2"/>
<stop offset="0.496094" stop-color="#B2B1B1"/>
<stop offset="0.5" stop-color="#B1B0B0"/>
<stop offset="0.503906" stop-color="#B1AFB0"/>
<stop offset="0.507812" stop-color="#B0AFAF"/>
<stop offset="0.511719" stop-color="#B0AEAF"/>
<stop offset="0.515625" stop-color="#AFAEAE"/>
<stop offset="0.519531" stop-color="#AEADAD"/>
<stop offset="0.523438" stop-color="#ADACAC"/>
<stop offset="0.527344" stop-color="#ACACAC"/>
<stop offset="0.53125" stop-color="#ACABAB"/>
<stop offset="0.535156" stop-color="#ACAAAA"/>
<stop offset="0.539062" stop-color="#ABA9AA"/>
<stop offset="0.542969" stop-color="#AAA9A9"/>
<stop offset="0.546875" stop-color="#A9A8A8"/>
<stop offset="0.550781" stop-color="#A9A7A8"/>
<stop offset="0.554688" stop-color="#A8A6A7"/>
<stop offset="0.558594" stop-color="#A7A6A6"/>
<stop offset="0.5625" stop-color="#A6A4A5"/>
<stop offset="0.566406" stop-color="#A5A3A4"/>
<stop offset="0.570312" stop-color="#A4A3A3"/>
<stop offset="0.574219" stop-color="#A4A2A2"/>
<stop offset="0.578125" stop-color="#A3A1A2"/>
<stop offset="0.582031" stop-color="#A2A0A1"/>
<stop offset="0.585938" stop-color="#A1A0A0"/>
<stop offset="0.589844" stop-color="#A1A0A0"/>
<stop offset="0.59375" stop-color="#A09F9F"/>
<stop offset="0.597656" stop-color="#A09E9F"/>
<stop offset="0.601562" stop-color="#9F9D9E"/>
<stop offset="0.605469" stop-color="#9E9C9D"/>
<stop offset="0.609375" stop-color="#9E9B9C"/>
<stop offset="0.613281" stop-color="#9D9A9B"/>
<stop offset="0.617188" stop-color="#9C9A9A"/>
<stop offset="0.621094" stop-color="#9B9999"/>
<stop offset="0.625" stop-color="#9B9898"/>
<stop offset="0.628906" stop-color="#9A9898"/>
<stop offset="0.632812" stop-color="#999798"/>
<stop offset="0.636719" stop-color="#989697"/>
<stop offset="0.640625" stop-color="#989596"/>
<stop offset="0.644531" stop-color="#969495"/>
<stop offset="0.648438" stop-color="#959394"/>
<stop offset="0.652344" stop-color="#959393"/>
<stop offset="0.65625" stop-color="#949292"/>
<stop offset="0.660156" stop-color="#939292"/>
<stop offset="0.664062" stop-color="#929192"/>
<stop offset="0.667969" stop-color="#929091"/>
<stop offset="0.671875" stop-color="#929090"/>
<stop offset="0.675781" stop-color="#918F8F"/>
<stop offset="0.679688" stop-color="#908E8E"/>
<stop offset="0.683594" stop-color="#8F8D8E"/>
<stop offset="0.6875" stop-color="#8E8C8D"/>
<stop offset="0.691406" stop-color="#8D8B8B"/>
<stop offset="0.695312" stop-color="#8C8A8B"/>
<stop offset="0.699219" stop-color="#8B898A"/>
<stop offset="0.703125" stop-color="#8B8889"/>
<stop offset="0.707031" stop-color="#8A8888"/>
<stop offset="0.710938" stop-color="#898787"/>
<stop offset="0.714844" stop-color="#888687"/>
<stop offset="0.71875" stop-color="#888686"/>
<stop offset="0.722656" stop-color="#878586"/>
<stop offset="0.726562" stop-color="#868585"/>
<stop offset="0.730469" stop-color="#858384"/>
<stop offset="0.734375" stop-color="#858283"/>
<stop offset="0.738281" stop-color="#848182"/>
<stop offset="0.742188" stop-color="#848182"/>
<stop offset="0.746094" stop-color="#838181"/>
<stop offset="0.75" stop-color="#828080"/>
<stop offset="0.753906" stop-color="#817F80"/>
<stop offset="0.757812" stop-color="#817E7F"/>
<stop offset="0.761719" stop-color="#807D7E"/>
<stop offset="0.765625" stop-color="#7F7C7D"/>
<stop offset="0.769531" stop-color="#7E7B7C"/>
<stop offset="0.773438" stop-color="#7D7A7B"/>
<stop offset="0.777344" stop-color="#7C797A"/>
<stop offset="0.78125" stop-color="#7B7979"/>
<stop offset="0.785156" stop-color="#7A7979"/>
<stop offset="0.789062" stop-color="#7A7878"/>
<stop offset="0.792969" stop-color="#797778"/>
<stop offset="0.796875" stop-color="#797677"/>
<stop offset="0.800781" stop-color="#787576"/>
<stop offset="0.804688" stop-color="#777575"/>
<stop offset="0.808594" stop-color="#767474"/>
<stop offset="0.8125" stop-color="#757373"/>
<stop offset="0.816406" stop-color="#747172"/>
<stop offset="0.820312" stop-color="#737171"/>
<stop offset="0.824219" stop-color="#727070"/>
<stop offset="0.828125" stop-color="#726F70"/>
<stop offset="0.832031" stop-color="#716E6F"/>
<stop offset="0.835938" stop-color="#706D6E"/>
<stop offset="0.839844" stop-color="#6F6D6D"/>
<stop offset="0.84375" stop-color="#6E6D6D"/>
<stop offset="0.847656" stop-color="#6E6C6C"/>
<stop offset="0.851562" stop-color="#6D6B6C"/>
<stop offset="0.855469" stop-color="#6C696A"/>
<stop offset="0.859375" stop-color="#6C6969"/>
<stop offset="0.863281" stop-color="#6B6868"/>
<stop offset="0.867188" stop-color="#6A6768"/>
<stop offset="0.871094" stop-color="#6A6667"/>
<stop offset="0.875" stop-color="#696667"/>
<stop offset="0.878906" stop-color="#686566"/>
<stop offset="0.882812" stop-color="#676465"/>
<stop offset="0.886719" stop-color="#666364"/>
<stop offset="0.890625" stop-color="#656363"/>
<stop offset="0.894531" stop-color="#646162"/>
<stop offset="0.898438" stop-color="#636061"/>
<stop offset="0.902344" stop-color="#625F60"/>
<stop offset="0.90625" stop-color="#615F5F"/>
<stop offset="0.910156" stop-color="#615F5F"/>
<stop offset="0.914062" stop-color="#605E5E"/>
<stop offset="0.917969" stop-color="#605D5E"/>
<stop offset="0.921875" stop-color="#5F5C5D"/>
<stop offset="0.925781" stop-color="#5E5B5C"/>
<stop offset="0.929688" stop-color="#5D5A5B"/>
<stop offset="0.933594" stop-color="#5D5A5A"/>
<stop offset="0.9375" stop-color="#5C5859"/>
<stop offset="0.941406" stop-color="#5A5758"/>
<stop offset="0.945312" stop-color="#595657"/>
<stop offset="0.949219" stop-color="#585556"/>
<stop offset="0.953125" stop-color="#585555"/>
<stop offset="0.957031" stop-color="#575455"/>
<stop offset="0.960938" stop-color="#565354"/>
<stop offset="0.964844" stop-color="#555353"/>
<stop offset="0.96875" stop-color="#545253"/>
<stop offset="0.972656" stop-color="#545152"/>
<stop offset="0.976562" stop-color="#535051"/>
<stop offset="0.980469" stop-color="#524F50"/>
<stop offset="0.984375" stop-color="#524E4F"/>
<stop offset="0.988281" stop-color="#514D4E"/>
<stop offset="0.992188" stop-color="#504C4D"/>
<stop offset="1" stop-color="#4F4C4D"/>
</radialGradient>
<clipPath id="clip0_1_3">
<rect width="372" height="159" fill="white"/>
</clipPath>
</defs>
</svg>
