<svg width="376" height="159" viewBox="0 0 376 159" fill="none" xmlns="http://www.w3.org/2000/svg">
<g clip-path="url(#clip0_1_318)">
<mask id="mask0_1_318" style="mask-type:luminance" maskUnits="userSpaceOnUse" x="30" y="66" width="79" height="94">
<path d="M30 66.9583H108.667V159.333H30V66.9583Z" fill="white"/>
</mask>
<g mask="url(#mask0_1_318)">
<path d="M67.6407 88.9271C67.1719 86.3906 66.4688 84.0208 66.3178 81.6146C66.0521 77.1458 68.3803 74.099 72.5678 72.5417C73.7969 72.0885 74.8386 71.125 76.2448 70.8958C77.3386 70.7083 77.948 71.0104 78.1928 72.0729C78.4792 73.2448 78.0209 74 76.849 74.099C75.8803 74.1719 74.8959 74.0573 73.9115 74.0781C73.6094 74.0781 73.3073 74.1927 73.0053 74.2865C69.4792 75.4635 67.5678 78.3958 68.0573 82.2969C68.2865 84.1354 68.9688 85.8958 69.4428 87.6979C69.6146 88.3437 69.974 88.4948 70.6563 88.3958C72.8907 88.0573 75.1251 87.7708 77.3594 87.5469C78.099 87.4687 78.3282 87.1875 78.4219 86.4844C79.0626 82.4896 82.3594 79.9323 86.3959 80.2344C90.1094 80.5208 93.0417 83.7187 93.099 87.526C93.1563 91.3542 90.1824 94.5729 86.2605 94.9531C82.948 95.276 80.1459 93.3437 78.5157 89.5729C77.2865 89.6875 76.0157 89.7604 74.7448 89.9115C73.4792 90.0677 72.2292 90.2917 70.8438 90.5C70.9948 90.8594 71.073 91.1458 71.2032 91.4115C73.0209 95.1406 75.9219 98.0208 78.5886 101.109C78.6667 101.203 78.7605 101.333 78.8386 101.333C80.6563 101.526 81.6407 103.078 83.0417 103.932C87.474 106.656 94.974 105.766 98.5573 102.016C99.198 101.333 99.6563 100.427 100.109 99.5729C100.698 98.4583 101.323 97.4167 102.531 96.8437C102.797 96.7135 103.063 96.3906 103.177 96.0885C104.75 92.0365 106.38 87.9635 106.547 83.5469C106.646 80.8958 106.662 78.151 106.151 75.5573C105.297 71.2396 102.229 69.099 98.0417 69.5677C96.8907 69.7031 95.7917 70.401 94.6563 70.7448C93.5365 71.0833 93.0053 70.7448 92.7032 69.6094C92.3803 68.3594 92.8178 67.6562 94.1251 67.5417C95.1251 67.4687 96.1876 66.9583 97.1146 67.8073C97.1928 67.8854 97.4167 67.8073 97.573 67.7917C103.594 67.4844 107.078 70.25 108.177 76.2187C108.938 80.3281 108.422 84.3646 107.589 88.3802C107.063 90.974 106.495 93.5521 105.792 96.0885C105.469 97.2448 104.714 98.2865 104.276 99.4219C103.688 100.937 103.328 102.547 102.667 104.005C101.094 107.49 99.2188 110.75 95.6771 112.589C96.3751 115.203 97.1563 117.719 97.724 120.276C99.1251 126.698 99.2761 133.12 97.0573 139.406C93.7813 148.651 87.1146 154.448 77.7553 156.74C63.7032 160.208 51.0313 156.875 40.6511 146.891C27.5626 134.349 28.073 114.5 41.3334 101.714C47.4323 95.8437 54.8386 92.3594 62.9063 90.1042C64.5573 89.6458 66.224 89.2708 67.6407 88.9271ZM68.724 90.9167C59.6303 92.7187 50.9948 95.8802 43.8126 102.245C37.5834 107.776 33.7188 114.651 33.4323 123.078C33.0573 134.599 37.9063 143.63 47.5834 149.807C56.1667 155.302 65.599 157.422 75.7136 155.302C87.1719 152.875 94.6719 144.786 96.2657 133.198C97.1146 126.943 96.0157 120.885 94.0678 114.937C93.6876 113.781 93.3074 113.042 91.9428 113.479C91.6407 113.573 91.2449 113.458 90.9011 113.401C88.1355 113.005 85.7709 111.714 83.7813 109.88C81.8698 108.115 80.2188 106.052 78.4011 104.156C77.7188 103.437 76.8282 102.927 76.2448 102.151C75.2761 100.901 74.2344 99.7656 73.4792 98.2656C72.2084 95.7292 70.4063 93.4375 68.724 90.9167ZM79.4271 101.958C79.349 102.094 79.2917 102.224 79.2188 102.375C80.0886 103.307 80.9219 104.271 81.8698 105.125C83.5938 106.677 85.2605 108.365 87.1928 109.615C91.5469 112.453 95.2396 111.755 98.1563 107.474C99.6355 105.312 100.599 102.812 101.797 100.464C102.25 99.5573 102.646 98.625 103.141 97.5104C101.396 97.849 100.828 99.026 100.167 100.182C99.5209 101.318 98.8803 102.547 97.948 103.401C93.8594 107.115 85.9011 107.661 81.5261 103.156C80.9948 102.604 80.1459 102.359 79.4271 101.958ZM80.5417 87.5104C80.5053 90.4427 82.7761 92.8281 85.6771 92.9062C88.5938 92.9635 91.0157 90.651 91.0938 87.7708C91.1511 84.7812 88.8386 82.375 85.8855 82.3385C82.948 82.2969 80.5782 84.5885 80.5417 87.5104Z" fill="white"/>
</g>
<path d="M85.8646 83.2865C88.25 83.3021 90.1459 85.2344 90.1459 87.6042C90.1459 90.0104 88.1354 91.9948 85.75 91.9583C83.3282 91.9219 81.4323 89.9323 81.4688 87.4896C81.5261 85.1198 83.4584 83.2656 85.8646 83.2865Z" fill="white"/>
<mask id="mask1_1_318" style="mask-type:luminance" maskUnits="userSpaceOnUse" x="39" y="2" width="18" height="26">
<path d="M39.3334 2H56.6667V27.3333H39.3334V2Z" fill="white"/>
</mask>
<g mask="url(#mask1_1_318)">
<mask id="mask2_1_318" style="mask-type:luminance" maskUnits="userSpaceOnUse" x="-8" y="0" width="112" height="151">
<path d="M-7.32812 4.94792L96.5573 0.104172L103.354 145.948L-0.53125 150.786L-7.32812 4.94792Z" fill="white"/>
</mask>
<g mask="url(#mask2_1_318)">
<mask id="mask3_1_318" style="mask-type:luminance" maskUnits="userSpaceOnUse" x="-8" y="0" width="112" height="151">
<path d="M-7.32812 4.94792L96.5573 0.104172L103.354 145.948L-0.53125 150.786L-7.32812 4.94792Z" fill="white"/>
</mask>
<g mask="url(#mask3_1_318)">
<mask id="mask4_1_318" style="mask-type:luminance" maskUnits="userSpaceOnUse" x="-8" y="0" width="112" height="151">
<path d="M-7.32812 4.94792L96.5573 0.104172L103.354 145.948L-0.53125 150.786L-7.32812 4.94792Z" fill="white"/>
</mask>
<g mask="url(#mask4_1_318)">
<path d="M47.5312 2.42188C47.5312 2.42188 34.3802 19.1198 44.4635 26.5469C39.0312 20.6042 47.8541 9.40625 47.8541 9.40625C47.8541 9.40625 57.6771 19.7396 52.8229 26.1563C62.1718 17.8229 47.5312 2.42188 47.5312 2.42188Z" fill="white"/>
</g>
</g>
</g>
</g>
<mask id="mask5_1_318" style="mask-type:luminance" maskUnits="userSpaceOnUse" x="68" y="36" width="25" height="20">
<path d="M68.6666 36.6667H92.6666V55.3333H68.6666V36.6667Z" fill="white"/>
</mask>
<g mask="url(#mask5_1_318)">
<mask id="mask6_1_318" style="mask-type:luminance" maskUnits="userSpaceOnUse" x="-8" y="0" width="112" height="151">
<path d="M-7.32812 4.94792L96.5573 0.104172L103.354 145.948L-0.53125 150.786L-7.32812 4.94792Z" fill="white"/>
</mask>
<g mask="url(#mask6_1_318)">
<mask id="mask7_1_318" style="mask-type:luminance" maskUnits="userSpaceOnUse" x="-8" y="0" width="112" height="151">
<path d="M-7.32812 4.94792L96.5573 0.104172L103.354 145.948L-0.53125 150.786L-7.32812 4.94792Z" fill="white"/>
</mask>
<g mask="url(#mask7_1_318)">
<mask id="mask8_1_318" style="mask-type:luminance" maskUnits="userSpaceOnUse" x="-8" y="0" width="112" height="151">
<path d="M-7.32812 4.94792L96.5573 0.104172L103.354 145.948L-0.53125 150.786L-7.32812 4.94792Z" fill="white"/>
</mask>
<g mask="url(#mask8_1_318)">
<path d="M92.2292 37.6511C92.2292 37.6511 71.1667 34.8958 69.9375 47.3594C72.2656 39.6511 86.401 41.5 86.401 41.5C86.401 41.5 82.5521 55.2292 74.5521 54.3438C86.4948 58.1094 92.2292 37.6511 92.2292 37.6511Z" fill="white"/>
</g>
</g>
</g>
</g>
<mask id="mask9_1_318" style="mask-type:luminance" maskUnits="userSpaceOnUse" x="6" y="40" width="24" height="18">
<path d="M6 40.6667H30V58H6V40.6667Z" fill="white"/>
</mask>
<g mask="url(#mask9_1_318)">
<mask id="mask10_1_318" style="mask-type:luminance" maskUnits="userSpaceOnUse" x="-8" y="0" width="112" height="151">
<path d="M-7.32812 4.94792L96.5573 0.104172L103.354 145.948L-0.53125 150.786L-7.32812 4.94792Z" fill="white"/>
</mask>
<g mask="url(#mask10_1_318)">
<mask id="mask11_1_318" style="mask-type:luminance" maskUnits="userSpaceOnUse" x="-8" y="0" width="112" height="151">
<path d="M-7.32812 4.94792L96.5573 0.104172L103.354 145.948L-0.53125 150.786L-7.32812 4.94792Z" fill="white"/>
</mask>
<g mask="url(#mask11_1_318)">
<mask id="mask12_1_318" style="mask-type:luminance" maskUnits="userSpaceOnUse" x="-8" y="0" width="112" height="151">
<path d="M-7.32812 4.94792L96.5573 0.104172L103.354 145.948L-0.53125 150.786L-7.32812 4.94792Z" fill="white"/>
</mask>
<g mask="url(#mask12_1_318)">
<path d="M6.29688 41.6563C6.29688 41.6563 27.0156 36.9479 29.3958 49.25C26.3646 41.7917 12.4583 44.9479 12.4583 44.9479C12.4583 44.9479 17.5729 58.2604 25.4531 56.6302C13.9115 61.4948 6.29688 41.6563 6.29688 41.6563Z" fill="white"/>
</g>
</g>
</g>
</g>
<mask id="mask13_1_318" style="mask-type:luminance" maskUnits="userSpaceOnUse" x="6" y="52" width="94" height="98">
<path d="M6 52.6667H99.3333V150H6V52.6667Z" fill="white"/>
</mask>
<g mask="url(#mask13_1_318)">
<mask id="mask14_1_318" style="mask-type:luminance" maskUnits="userSpaceOnUse" x="-8" y="0" width="112" height="151">
<path d="M-7.32812 4.94792L96.5573 0.104172L103.354 145.948L-0.53125 150.786L-7.32812 4.94792Z" fill="white"/>
</mask>
<g mask="url(#mask14_1_318)">
<mask id="mask15_1_318" style="mask-type:luminance" maskUnits="userSpaceOnUse" x="-8" y="0" width="112" height="151">
<path d="M-7.32812 4.94792L96.5573 0.104172L103.354 145.948L-0.53125 150.786L-7.32812 4.94792Z" fill="white"/>
</mask>
<g mask="url(#mask15_1_318)">
<mask id="mask16_1_318" style="mask-type:luminance" maskUnits="userSpaceOnUse" x="-8" y="0" width="112" height="151">
<path d="M-7.32812 4.94792L96.5573 0.104172L103.354 145.948L-0.53125 150.786L-7.32812 4.94792Z" fill="white"/>
</mask>
<g mask="url(#mask16_1_318)">
<path d="M99.0678 53.5885C99.0678 53.5885 85.3282 50.224 73.3855 70.0417C62.4115 88.25 65.7344 97.2656 31.9271 84.5208C-4.24473 70.8854 25.1667 61.4427 25.1667 61.4427C25.1667 61.4427 4.33339 64.026 7.50527 74.5313C11.1355 86.599 43.7344 101.12 49.9948 111.688C54.2188 118.828 55.0261 139.12 43.1824 148.719C43.1824 148.719 68.2084 141.276 75.6615 92.8854C81.5626 54.6042 99.0678 53.5885 99.0678 53.5885Z" fill="white"/>
</g>
</g>
</g>
</g>
<mask id="mask17_1_318" style="mask-type:luminance" maskUnits="userSpaceOnUse" x="44" y="64" width="21" height="24">
<path d="M44.6666 64.6667H64.6666V87.3333H44.6666V64.6667Z" fill="white"/>
</mask>
<g mask="url(#mask17_1_318)">
<mask id="mask18_1_318" style="mask-type:luminance" maskUnits="userSpaceOnUse" x="-8" y="0" width="112" height="151">
<path d="M-7.32812 4.94792L96.5573 0.104172L103.354 145.948L-0.53125 150.786L-7.32812 4.94792Z" fill="white"/>
</mask>
<g mask="url(#mask18_1_318)">
<mask id="mask19_1_318" style="mask-type:luminance" maskUnits="userSpaceOnUse" x="-8" y="0" width="112" height="151">
<path d="M-7.32812 4.94792L96.5573 0.104172L103.354 145.948L-0.53125 150.786L-7.32812 4.94792Z" fill="white"/>
</mask>
<g mask="url(#mask19_1_318)">
<mask id="mask20_1_318" style="mask-type:luminance" maskUnits="userSpaceOnUse" x="-8" y="0" width="112" height="151">
<path d="M-7.32812 4.94792L96.5573 0.104172L103.354 145.948L-0.53125 150.786L-7.32812 4.94792Z" fill="white"/>
</mask>
<g mask="url(#mask20_1_318)">
<path d="M63.2865 73.4115C61.7969 67.8802 56.6042 64.7083 51.6875 66.3229C46.7709 67.9323 43.9948 73.7188 45.4844 79.25C46.9792 84.776 52.1719 87.9479 57.0886 86.3385C62.0052 84.724 64.7813 78.9375 63.2865 73.4115Z" fill="white"/>
</g>
</g>
</g>
</g>
<mask id="mask21_1_318" style="mask-type:luminance" maskUnits="userSpaceOnUse" x="44" y="66" width="20" height="20">
<path d="M44.6666 66H63.3333V86H44.6666V66Z" fill="white"/>
</mask>
<g mask="url(#mask21_1_318)">
<mask id="mask22_1_318" style="mask-type:luminance" maskUnits="userSpaceOnUse" x="-8" y="0" width="112" height="151">
<path d="M-7.32812 4.94792L96.5573 0.104172L103.354 145.948L-0.53125 150.786L-7.32812 4.94792Z" fill="white"/>
</mask>
<g mask="url(#mask22_1_318)">
<mask id="mask23_1_318" style="mask-type:luminance" maskUnits="userSpaceOnUse" x="-8" y="0" width="112" height="151">
<path d="M-7.32812 4.94792L96.5573 0.104172L103.354 145.948L-0.53125 150.786L-7.32812 4.94792Z" fill="white"/>
</mask>
<g mask="url(#mask23_1_318)">
<mask id="mask24_1_318" style="mask-type:luminance" maskUnits="userSpaceOnUse" x="-8" y="0" width="112" height="151">
<path d="M-7.32812 4.94792L96.5573 0.104172L103.354 145.948L-0.53125 150.786L-7.32812 4.94792Z" fill="white"/>
</mask>
<g mask="url(#mask24_1_318)">
<mask id="mask25_1_318" style="mask-type:luminance" maskUnits="userSpaceOnUse" x="45" y="66" width="19" height="21">
<path d="M45.1302 67.1146L62.5782 66.3021L63.4844 85.7292L46.0313 86.5417L45.1302 67.1146Z" fill="white"/>
</mask>
<g mask="url(#mask25_1_318)">
<mask id="mask26_1_318" style="mask-type:luminance" maskUnits="userSpaceOnUse" x="45" y="66" width="18" height="20">
<path d="M54.8282 85.901C50.9948 86.0781 47.375 83.3281 46.2084 79.0104C44.8386 73.9323 47.3907 68.6146 51.9063 67.1302C52.5834 66.9115 53.2709 66.7865 53.948 66.7552C57.7813 66.5781 61.4011 69.3281 62.5678 73.6458C63.9375 78.724 61.3855 84.0417 56.8698 85.526C56.1875 85.7448 55.5053 85.8698 54.8282 85.901Z" fill="white"/>
</mask>
<g mask="url(#mask26_1_318)">
<mask id="mask27_1_318" style="mask-type:luminance" maskUnits="userSpaceOnUse" x="45" y="66" width="19" height="21">
<path d="M45.1302 67.1146L62.5782 66.3021L63.4844 85.7292L46.0313 86.5417L45.1302 67.1146Z" fill="white"/>
</mask>
<g mask="url(#mask27_1_318)">
<mask id="mask28_1_318" style="mask-type:luminance" maskUnits="userSpaceOnUse" x="45" y="66" width="18" height="20">
<path d="M54.8282 85.901C50.9948 86.0781 47.375 83.3281 46.2084 79.0104C44.8386 73.9323 47.3907 68.6146 51.9063 67.1302C52.5834 66.9115 53.2709 66.7865 53.948 66.7552C57.7813 66.5781 61.4011 69.3281 62.5678 73.6458C63.9375 78.724 61.3855 84.0417 56.8698 85.526C56.1875 85.7448 55.5053 85.8698 54.8282 85.901Z" fill="white"/>
</mask>
<g mask="url(#mask28_1_318)">
<mask id="mask29_1_318" style="mask-type:luminance" maskUnits="userSpaceOnUse" x="44" y="66" width="21" height="21">
<path d="M63.3595 66.3177L44.5261 67.1927L45.4167 86.3386L64.2501 85.4636L63.3595 66.3177Z" fill="white"/>
</mask>
<g mask="url(#mask29_1_318)">
<path d="M63.4428 65.724L44.2189 66.6198L45.1668 86.9323L64.3907 86.0365L63.4428 65.724Z" fill="white"/>
</g>
</g>
</g>
</g>
</g>
</g>
</g>
</g>
</g>
<path d="M137.553 82.3404C135.371 82.3404 133.491 81.83 131.907 80.7987C130.334 79.7571 129.136 78.33 128.303 76.5071C127.47 74.6894 127.053 72.6269 127.053 70.3196C127.053 68.0019 127.47 65.9341 128.303 64.1112C129.136 62.2935 130.334 60.8716 131.907 59.8404C133.491 58.7987 135.371 58.2779 137.553 58.2779C140.178 58.2779 142.345 59.0227 144.053 60.5071C145.761 61.981 146.907 63.9758 147.491 66.4862H144.657C144.183 64.7675 143.324 63.4029 142.074 62.4029C140.834 61.3925 139.345 60.8821 137.595 60.8821C135.162 60.8821 133.303 61.7362 132.011 63.4446C130.73 65.1425 130.095 67.4185 130.095 70.2779C130.095 73.1685 130.73 75.4654 132.011 77.1737C133.303 78.8716 135.162 79.7154 137.595 79.7154C139.261 79.7154 140.689 79.2675 141.886 78.3612C143.079 77.4602 143.933 76.2519 144.449 74.7362H147.282C146.657 77.0591 145.501 78.9029 143.824 80.2779C142.157 81.6529 140.064 82.3404 137.553 82.3404Z" fill="white"/>
<path d="M165.054 75.3196H155.554L153.074 82.1112H150.158L158.908 58.7779H161.658L170.491 82.1112H167.554L165.054 75.3196ZM164.22 73.0071L160.324 62.4446H160.179L156.387 73.0071H164.22Z" fill="white"/>
<path d="M181.154 72.8196H176.987V82.1112H174.112V58.7779H182.05C183.935 58.7779 185.487 59.1269 186.696 59.8196C187.904 60.5019 188.769 61.3769 189.3 62.4446C189.842 63.5175 190.112 64.6425 190.112 65.8196C190.112 67.4341 189.623 68.8821 188.654 70.1737C187.696 71.4654 186.196 72.2935 184.154 72.6529L190.321 82.1112H187.154L181.154 72.8196ZM176.987 70.3404H181.675C183.258 70.3404 184.592 70.0019 185.675 69.3196C186.769 68.6269 187.321 67.4602 187.321 65.8196C187.321 64.1946 186.769 63.0487 185.675 62.3821C184.592 61.7154 183.258 61.3821 181.675 61.3821H176.987V70.3404Z" fill="white"/>
<path d="M197.172 61.3821V69.0487H207.276V71.3821H197.172V79.5071H208.651V82.1112H194.276V58.7779H208.651V61.3821H197.172Z" fill="white"/>
<path d="M230.738 82.3404C228.556 82.3404 226.676 81.83 225.092 80.7987C223.52 79.7571 222.322 78.33 221.488 76.5071C220.655 74.6894 220.238 72.6269 220.238 70.3196C220.238 68.0019 220.655 65.9341 221.488 64.1112C222.322 62.2935 223.52 60.8716 225.092 59.8404C226.676 58.7987 228.556 58.2779 230.738 58.2779C233.363 58.2779 235.53 59.0227 237.238 60.5071C238.947 61.981 240.092 63.9758 240.676 66.4862H237.842C237.368 64.7675 236.509 63.4029 235.259 62.4029C234.02 61.3925 232.53 60.8821 230.78 60.8821C228.348 60.8821 226.488 61.7362 225.197 63.4446C223.915 65.1425 223.28 67.4185 223.28 70.2779C223.28 73.1685 223.915 75.4654 225.197 77.1737C226.488 78.8716 228.348 79.7154 230.78 79.7154C232.447 79.7154 233.874 79.2675 235.072 78.3612C236.264 77.4602 237.118 76.2519 237.634 74.7362H240.467C239.842 77.0591 238.686 78.9029 237.009 80.2779C235.342 81.6529 233.249 82.3404 230.738 82.3404Z" fill="white"/>
<path d="M254.405 82.3404C252.181 82.3404 250.27 81.8352 248.676 80.8196C247.093 79.7935 245.89 78.3716 245.072 76.5487C244.249 74.731 243.843 72.6633 243.843 70.3404C243.843 68.0383 244.26 65.9654 245.093 64.1321C245.926 62.2987 247.135 60.8716 248.718 59.8404C250.301 58.7987 252.197 58.2779 254.405 58.2779C256.582 58.2779 258.457 58.7987 260.03 59.8404C261.614 60.8716 262.812 62.2935 263.635 64.1112C264.452 65.9341 264.864 68.0227 264.864 70.3821C264.864 72.7154 264.452 74.7883 263.635 76.5904C262.812 78.3821 261.614 79.7935 260.03 80.8196C258.457 81.8352 256.582 82.3404 254.405 82.3404ZM254.364 79.6737C255.905 79.6737 257.239 79.2883 258.364 78.5071C259.499 77.7154 260.369 76.6112 260.968 75.1946C261.562 73.7675 261.864 72.1425 261.864 70.3196C261.864 68.4862 261.562 66.8612 260.968 65.4446C260.369 64.0279 259.499 62.9185 258.364 62.1112C257.239 61.3091 255.905 60.9029 254.364 60.9029C252.832 60.9029 251.499 61.3144 250.364 62.1321C249.239 62.9394 248.369 64.0591 247.76 65.4862C247.161 66.9029 246.864 68.5175 246.864 70.3196C246.864 72.1425 247.161 73.7571 247.76 75.1737C248.369 76.58 249.239 77.6841 250.364 78.4862C251.499 79.2779 252.832 79.6737 254.364 79.6737Z" fill="white"/>
<path d="M269.131 58.7779H272.36L284.86 77.5071H285.006V58.7779H287.839V82.1112H284.568L272.089 63.6529H271.964V82.1112H269.131V58.7779Z" fill="white"/>
<path d="M295.723 61.3821V69.0487H305.827V71.3821H295.723V79.5071H307.202V82.1112H292.827V58.7779H307.202V61.3821H295.723Z" fill="white"/>
<path d="M314.686 61.3821V69.0487H324.791V71.3821H314.686V79.5071H326.166V82.1112H311.791V58.7779H326.166V61.3821H314.686Z" fill="white"/>
<path d="M340.588 82.3404C338.405 82.3404 336.525 81.83 334.942 80.7987C333.369 79.7571 332.171 78.33 331.338 76.5071C330.504 74.6894 330.088 72.6269 330.088 70.3196C330.088 68.0019 330.504 65.9341 331.338 64.1112C332.171 62.2935 333.369 60.8716 334.942 59.8404C336.525 58.7987 338.405 58.2779 340.588 58.2779C343.213 58.2779 345.379 59.0227 347.088 60.5071C348.796 61.981 349.942 63.9758 350.525 66.4862H347.692C347.218 64.7675 346.358 63.4029 345.108 62.4029C343.869 61.3925 342.379 60.8821 340.629 60.8821C338.197 60.8821 336.338 61.7362 335.046 63.4446C333.765 65.1425 333.129 67.4185 333.129 70.2779C333.129 73.1685 333.765 75.4654 335.046 77.1737C336.338 78.8716 338.197 79.7154 340.629 79.7154C342.296 79.7154 343.723 79.2675 344.921 78.3612C346.114 77.4602 346.968 76.2519 347.483 74.7362H350.317C349.692 77.0591 348.536 78.9029 346.858 80.2779C345.192 81.6529 343.098 82.3404 340.588 82.3404Z" fill="white"/>
<path d="M370.088 61.3821H363.213V82.1112H360.359V61.3821H353.484V58.7779H370.088V61.3821Z" fill="white"/>
<path d="M121.357 109.515L121.92 108.203C122.279 108.51 122.711 108.76 123.211 108.953C123.711 109.135 124.191 109.224 124.649 109.224C125.258 109.224 125.8 109.057 126.274 108.724C126.758 108.38 127.003 107.88 127.003 107.224C127.003 106.671 126.816 106.203 126.441 105.828C126.076 105.442 125.633 105.135 125.107 104.911C124.576 104.677 124.055 104.432 123.545 104.182C123.029 103.932 122.586 103.578 122.211 103.119C121.847 102.661 121.67 102.093 121.67 101.411C121.67 100.468 122.029 99.7236 122.753 99.1819C123.472 98.6402 124.326 98.3694 125.316 98.3694C126.357 98.3694 127.357 98.6611 128.316 99.2444L127.586 100.307C126.836 99.7809 126.071 99.5152 125.295 99.5152C124.68 99.5152 124.191 99.6715 123.816 99.9736C123.451 100.265 123.274 100.703 123.274 101.286C123.274 101.619 123.368 101.921 123.566 102.182C123.758 102.432 124.008 102.656 124.316 102.849C124.633 103.031 124.982 103.203 125.357 103.369C125.732 103.536 126.112 103.724 126.503 103.932C126.888 104.14 127.237 104.38 127.545 104.64C127.847 104.89 128.097 105.218 128.295 105.619C128.487 106.026 128.586 106.489 128.586 107.015C128.586 108.099 128.201 108.932 127.441 109.515C126.675 110.088 125.722 110.369 124.586 110.369C123.545 110.369 122.467 110.088 121.357 109.515Z" fill="white"/>
<path d="M133.78 109.182L134.009 110.078C133.368 110.255 132.842 110.349 132.426 110.349C131.769 110.349 131.301 110.182 131.009 109.849C130.728 109.505 130.592 108.984 130.592 108.286V103.244H129.405V102.432C130.332 102.421 130.952 101.593 131.259 99.9527H132.28C132.04 100.911 131.926 101.671 131.926 102.224H134.009L133.717 103.244H131.926V108.328C131.926 108.661 131.988 108.911 132.113 109.078C132.238 109.244 132.457 109.328 132.78 109.328C133.014 109.328 133.347 109.281 133.78 109.182Z" fill="white"/>
<path d="M136.949 110.182H135.616V104.432C135.616 103.489 135.449 102.765 135.116 102.265L136.553 102.078C136.746 102.552 136.866 103.052 136.908 103.578C137.199 103.135 137.58 102.776 138.053 102.494C138.522 102.218 139.017 102.078 139.533 102.078L139.199 103.494C138.335 103.494 137.585 103.968 136.949 104.911V110.182Z" fill="white"/>
<path d="M146.408 108.536L146.992 109.494C146.252 110.093 145.356 110.39 144.304 110.39C143.148 110.39 142.247 110.01 141.596 109.244C140.94 108.468 140.617 107.484 140.617 106.286C140.617 105.567 140.731 104.89 140.971 104.265C141.205 103.64 141.596 103.114 142.138 102.682C142.679 102.255 143.325 102.036 144.075 102.036C144.992 102.036 145.731 102.317 146.304 102.869C146.872 103.411 147.158 104.14 147.158 105.057C147.158 105.739 146.888 106.078 146.346 106.078H142.013V106.244C142.013 107.01 142.221 107.703 142.638 108.328C143.054 108.953 143.622 109.265 144.346 109.265C144.69 109.265 145.054 109.203 145.429 109.078C145.815 108.942 146.143 108.76 146.408 108.536ZM142.117 105.099H145.45C145.575 105.099 145.648 105.078 145.679 105.036C145.721 104.984 145.742 104.89 145.742 104.765C145.742 104.281 145.601 103.869 145.325 103.536C145.044 103.203 144.669 103.036 144.2 103.036C143.684 103.036 143.231 103.244 142.846 103.661C142.455 104.078 142.21 104.557 142.117 105.099Z" fill="white"/>
<path d="M155.5 109.015L155.771 109.849C155.698 109.88 155.583 109.927 155.417 109.994C155.25 110.067 155.115 110.119 155.021 110.161C154.922 110.203 154.797 110.234 154.646 110.265C154.49 110.307 154.359 110.328 154.25 110.328C153.927 110.328 153.672 110.229 153.479 110.036C153.281 109.828 153.156 109.567 153.104 109.244C152.396 109.984 151.594 110.349 150.708 110.349C150.068 110.349 149.542 110.161 149.125 109.786C148.719 109.411 148.521 108.906 148.521 108.265C148.521 106.463 150.042 105.552 153.083 105.536V104.682C153.083 103.614 152.635 103.078 151.75 103.078C151.333 103.078 150.906 103.171 150.479 103.349C150.062 103.515 149.719 103.739 149.458 104.015L148.812 103.078C149.672 102.385 150.687 102.036 151.854 102.036C152.687 102.036 153.318 102.265 153.75 102.724C154.177 103.171 154.396 103.817 154.396 104.661V108.64C154.396 108.849 154.417 109.005 154.458 109.099C154.51 109.198 154.609 109.244 154.75 109.244C154.885 109.244 155.135 109.171 155.5 109.015ZM153.083 107.078V106.557C152.677 106.557 152.338 106.573 152.062 106.599C151.781 106.63 151.448 106.692 151.062 106.786C150.687 106.885 150.396 107.057 150.187 107.307C149.979 107.546 149.875 107.849 149.875 108.224C149.875 108.557 149.984 108.817 150.208 108.994C150.443 109.161 150.755 109.244 151.146 109.244C151.687 109.244 152.146 109.026 152.521 108.578C152.896 108.135 153.083 107.635 153.083 107.078Z" fill="white"/>
<path d="M167.675 110.182H166.341V105.307C166.341 105.015 166.326 104.776 166.3 104.578C166.268 104.369 166.216 104.156 166.133 103.932C166.06 103.698 165.93 103.526 165.737 103.411C165.539 103.286 165.3 103.224 165.008 103.224C164.409 103.224 163.727 103.588 162.966 104.307C162.977 104.531 162.987 104.718 162.987 104.869V110.182H161.675V105.307C161.675 105.005 161.659 104.755 161.633 104.557C161.617 104.349 161.56 104.135 161.466 103.911C161.383 103.692 161.242 103.526 161.05 103.411C160.867 103.286 160.633 103.224 160.341 103.224C159.768 103.224 159.097 103.578 158.321 104.286V110.182H156.987V104.411C156.987 103.552 156.821 102.843 156.487 102.286L157.946 102.119C158.097 102.484 158.196 102.849 158.237 103.224C159.055 102.432 159.831 102.036 160.571 102.036C161.597 102.036 162.326 102.484 162.758 103.369C163.643 102.484 164.472 102.036 165.237 102.036C166.081 102.036 166.701 102.296 167.091 102.807C167.477 103.307 167.675 103.994 167.675 104.869V110.182Z" fill="white"/>
<path d="M171.647 110.182H170.335V98.9111C170.335 98.9111 170.314 98.8434 170.272 98.7027C170.241 98.5673 170.21 98.4215 170.168 98.2652C170.137 98.0986 170.126 98.01 170.126 97.9944H171.647V110.182Z" fill="white"/>
<path d="M175.955 99.5569C175.955 99.8382 175.856 100.073 175.663 100.265C175.481 100.448 175.252 100.536 174.976 100.536C174.71 100.536 174.481 100.442 174.288 100.244C174.106 100.052 174.017 99.8225 174.017 99.5569C174.017 99.2965 174.106 99.0673 174.288 98.8694C174.481 98.6767 174.71 98.5777 174.976 98.5777C175.236 98.5777 175.465 98.6767 175.663 98.8694C175.856 99.0673 175.955 99.2965 175.955 99.5569ZM175.663 110.182H174.351V103.182C174.351 103.171 174.33 103.093 174.288 102.953C174.257 102.802 174.226 102.651 174.184 102.494C174.153 102.343 174.142 102.255 174.142 102.224H175.663V110.182Z" fill="white"/>
<path d="M184.429 110.182H183.117V105.307C183.117 105.057 183.106 104.859 183.096 104.703C183.096 104.536 183.065 104.359 183.012 104.161C182.971 103.953 182.898 103.786 182.804 103.661C182.721 103.536 182.585 103.432 182.408 103.349C182.242 103.265 182.033 103.224 181.783 103.224C181.075 103.224 180.346 103.578 179.596 104.286V110.182H178.283V104.557C178.283 103.531 178.106 102.776 177.762 102.286L179.221 102.099C179.387 102.505 179.492 102.885 179.533 103.244C180.325 102.442 181.148 102.036 182.012 102.036C182.846 102.036 183.455 102.296 183.846 102.807C184.231 103.307 184.429 103.994 184.429 104.869V110.182Z" fill="white"/>
<path d="M188.723 99.5569C188.723 99.8382 188.624 100.073 188.431 100.265C188.249 100.448 188.02 100.536 187.744 100.536C187.478 100.536 187.249 100.442 187.056 100.244C186.874 100.052 186.785 99.8225 186.785 99.5569C186.785 99.2965 186.874 99.0673 187.056 98.8694C187.249 98.6767 187.478 98.5777 187.744 98.5777C188.004 98.5777 188.233 98.6767 188.431 98.8694C188.624 99.0673 188.723 99.2965 188.723 99.5569ZM188.431 110.182H187.119V103.182C187.119 103.171 187.098 103.093 187.056 102.953C187.025 102.802 186.994 102.651 186.952 102.494C186.921 102.343 186.91 102.255 186.91 102.224H188.431V110.182Z" fill="white"/>
<path d="M197.197 110.182H195.885V105.307C195.885 105.057 195.874 104.859 195.864 104.703C195.864 104.536 195.833 104.359 195.781 104.161C195.739 103.953 195.666 103.786 195.572 103.661C195.489 103.536 195.353 103.432 195.176 103.349C195.01 103.265 194.801 103.224 194.551 103.224C193.843 103.224 193.114 103.578 192.364 104.286V110.182H191.051V104.557C191.051 103.531 190.874 102.776 190.531 102.286L191.989 102.099C192.156 102.505 192.26 102.885 192.301 103.244C193.093 102.442 193.916 102.036 194.781 102.036C195.614 102.036 196.223 102.296 196.614 102.807C196.999 103.307 197.197 103.994 197.197 104.869V110.182Z" fill="white"/>
<path d="M206.074 103.182H204.366C204.71 103.64 204.887 104.177 204.887 104.786C204.887 105.552 204.605 106.203 204.053 106.744C203.496 107.286 202.835 107.557 202.074 107.557C201.991 107.557 201.876 107.552 201.741 107.536C201.616 107.51 201.522 107.494 201.47 107.494C201.314 107.494 201.168 107.599 201.033 107.807C200.892 108.015 200.824 108.203 200.824 108.369C200.824 108.552 200.876 108.692 200.991 108.786C201.1 108.885 201.21 108.942 201.324 108.953C201.434 108.968 201.595 108.974 201.803 108.974C201.97 108.974 202.225 108.968 202.574 108.953C202.934 108.927 203.189 108.911 203.345 108.911C205.012 108.911 205.845 109.474 205.845 110.599C205.845 111.692 205.439 112.515 204.637 113.057C203.829 113.599 202.866 113.869 201.741 113.869C201.001 113.869 200.335 113.703 199.741 113.369C199.158 113.036 198.866 112.526 198.866 111.849C198.866 111.151 199.272 110.52 200.095 109.953C199.605 109.718 199.366 109.328 199.366 108.786C199.366 108.76 199.428 108.651 199.553 108.453C199.996 107.859 200.303 107.401 200.47 107.078C200.079 106.828 199.772 106.505 199.553 106.099C199.345 105.682 199.241 105.255 199.241 104.807C199.241 104.046 199.517 103.39 200.074 102.849C200.626 102.307 201.288 102.036 202.053 102.036C202.262 102.036 202.559 102.078 202.949 102.161C203.335 102.234 203.621 102.265 203.803 102.265C204.345 102.265 205.199 102.182 206.366 102.015L206.074 103.182ZM202.053 106.599C202.439 106.599 202.772 106.427 203.053 106.078C203.345 105.734 203.491 105.307 203.491 104.807C203.491 104.307 203.345 103.885 203.053 103.536C202.772 103.177 202.449 102.994 202.074 102.994C201.668 102.994 201.329 103.171 201.053 103.515C200.772 103.864 200.637 104.286 200.637 104.786C200.637 105.286 200.772 105.718 201.053 106.078C201.329 106.427 201.663 106.599 202.053 106.599ZM201.053 110.224C200.829 110.39 200.637 110.599 200.47 110.849C200.314 111.099 200.241 111.338 200.241 111.578C200.241 111.937 200.428 112.224 200.803 112.432C201.178 112.651 201.564 112.765 201.97 112.765C202.647 112.765 203.262 112.625 203.803 112.349C204.345 112.067 204.616 111.64 204.616 111.057C204.616 110.859 204.564 110.703 204.47 110.578C204.371 110.453 204.23 110.359 204.053 110.307C203.871 110.25 203.704 110.213 203.553 110.203C203.397 110.187 203.21 110.182 202.991 110.182C202.335 110.182 201.689 110.192 201.053 110.224Z" fill="white"/>
<path d="M218.881 108.182L219.569 109.244C219.136 109.609 218.59 109.885 217.923 110.078C217.256 110.27 216.621 110.369 216.027 110.369C214.329 110.369 212.996 109.796 212.027 108.64C211.069 107.474 210.59 106.036 210.59 104.328C210.59 102.593 211.074 101.171 212.048 100.057C213.017 98.9319 214.35 98.3694 216.048 98.3694C216.683 98.3694 217.34 98.484 218.006 98.7027C218.673 98.9267 219.183 99.2392 219.548 99.6402L218.715 100.557C218.407 100.239 217.996 99.984 217.485 99.7861C216.97 99.5934 216.485 99.4944 216.027 99.4944C215.36 99.4944 214.777 99.6402 214.277 99.9319C213.777 100.213 213.381 100.593 213.09 101.078C212.798 101.567 212.579 102.088 212.444 102.64C212.303 103.198 212.235 103.796 212.235 104.432C212.235 105.073 212.303 105.671 212.444 106.224C212.579 106.765 212.798 107.265 213.09 107.724C213.392 108.171 213.798 108.526 214.298 108.786C214.808 109.052 215.392 109.182 216.048 109.182C216.532 109.182 217.038 109.093 217.569 108.911C218.095 108.734 218.532 108.489 218.881 108.182Z" fill="white"/>
<path d="M227.532 109.015L227.803 109.849C227.73 109.88 227.615 109.927 227.449 109.994C227.282 110.067 227.147 110.119 227.053 110.161C226.954 110.203 226.829 110.234 226.678 110.265C226.522 110.307 226.391 110.328 226.282 110.328C225.959 110.328 225.704 110.229 225.511 110.036C225.313 109.828 225.188 109.567 225.136 109.244C224.428 109.984 223.626 110.349 222.74 110.349C222.1 110.349 221.574 110.161 221.157 109.786C220.751 109.411 220.553 108.906 220.553 108.265C220.553 106.463 222.074 105.552 225.115 105.536V104.682C225.115 103.614 224.667 103.078 223.782 103.078C223.365 103.078 222.938 103.171 222.511 103.349C222.095 103.515 221.751 103.739 221.49 104.015L220.845 103.078C221.704 102.385 222.72 102.036 223.886 102.036C224.72 102.036 225.35 102.265 225.782 102.724C226.209 103.171 226.428 103.817 226.428 104.661V108.64C226.428 108.849 226.449 109.005 226.49 109.099C226.542 109.198 226.641 109.244 226.782 109.244C226.917 109.244 227.167 109.171 227.532 109.015ZM225.115 107.078V106.557C224.709 106.557 224.371 106.573 224.095 106.599C223.813 106.63 223.48 106.692 223.095 106.786C222.72 106.885 222.428 107.057 222.22 107.307C222.011 107.546 221.907 107.849 221.907 108.224C221.907 108.557 222.016 108.817 222.24 108.994C222.475 109.161 222.787 109.244 223.178 109.244C223.72 109.244 224.178 109.026 224.553 108.578C224.928 108.135 225.115 107.635 225.115 107.078Z" fill="white"/>
<path d="M230.373 110.182H229.04V104.432C229.04 103.489 228.873 102.765 228.54 102.265L229.978 102.078C230.17 102.552 230.29 103.052 230.332 103.578C230.623 103.135 231.004 102.776 231.478 102.494C231.946 102.218 232.441 102.078 232.957 102.078L232.623 103.494C231.759 103.494 231.009 103.968 230.373 104.911V110.182Z" fill="white"/>
<path d="M239.833 108.536L240.416 109.494C239.676 110.093 238.78 110.39 237.728 110.39C236.572 110.39 235.671 110.01 235.02 109.244C234.364 108.468 234.041 107.484 234.041 106.286C234.041 105.567 234.155 104.89 234.395 104.265C234.629 103.64 235.02 103.114 235.562 102.682C236.103 102.255 236.749 102.036 237.499 102.036C238.416 102.036 239.155 102.317 239.728 102.869C240.296 103.411 240.583 104.14 240.583 105.057C240.583 105.739 240.312 106.078 239.77 106.078H235.437V106.244C235.437 107.01 235.645 107.703 236.062 108.328C236.478 108.953 237.046 109.265 237.77 109.265C238.114 109.265 238.478 109.203 238.853 109.078C239.239 108.942 239.567 108.76 239.833 108.536ZM235.541 105.099H238.874C238.999 105.099 239.072 105.078 239.103 105.036C239.145 104.984 239.166 104.89 239.166 104.765C239.166 104.281 239.025 103.869 238.749 103.536C238.468 103.203 238.093 103.036 237.624 103.036C237.109 103.036 236.655 103.244 236.27 103.661C235.879 104.078 235.635 104.557 235.541 105.099Z" fill="white"/>
<path d="M241.987 111.661C242.013 111.63 242.07 111.567 242.153 111.474C242.247 111.39 242.325 111.317 242.382 111.265C242.434 111.208 242.497 111.13 242.57 111.036C242.638 110.953 242.684 110.859 242.716 110.765C242.757 110.682 242.778 110.604 242.778 110.536C242.778 110.411 242.638 110.224 242.362 109.974C242.096 109.724 241.966 109.453 241.966 109.161C241.966 108.901 242.059 108.677 242.257 108.494C242.45 108.302 242.684 108.203 242.966 108.203C243.341 108.203 243.632 108.338 243.841 108.599C244.059 108.864 244.174 109.182 244.174 109.557C244.174 110.541 243.622 111.432 242.528 112.224C242.33 112.041 242.153 111.854 241.987 111.661Z" fill="white"/>
<path d="M257.697 108.182L258.385 109.244C257.953 109.609 257.406 109.885 256.739 110.078C256.072 110.27 255.437 110.369 254.843 110.369C253.145 110.369 251.812 109.796 250.843 108.64C249.885 107.474 249.406 106.036 249.406 104.328C249.406 102.593 249.89 101.171 250.864 100.057C251.833 98.9319 253.166 98.3694 254.864 98.3694C255.5 98.3694 256.156 98.484 256.822 98.7027C257.489 98.9267 258 99.2392 258.364 99.6402L257.531 100.557C257.223 100.239 256.812 99.984 256.302 99.7861C255.786 99.5934 255.302 99.4944 254.843 99.4944C254.177 99.4944 253.593 99.6402 253.093 99.9319C252.593 100.213 252.197 100.593 251.906 101.078C251.614 101.567 251.395 102.088 251.26 102.64C251.119 103.198 251.052 103.796 251.052 104.432C251.052 105.073 251.119 105.671 251.26 106.224C251.395 106.765 251.614 107.265 251.906 107.724C252.208 108.171 252.614 108.526 253.114 108.786C253.625 109.052 254.208 109.182 254.864 109.182C255.348 109.182 255.854 109.093 256.385 108.911C256.911 108.734 257.348 108.489 257.697 108.182Z" fill="white"/>
<path d="M262.952 110.39C261.827 110.39 260.942 109.984 260.306 109.161C259.681 108.343 259.369 107.364 259.369 106.224C259.369 105.073 259.687 104.088 260.327 103.265C260.963 102.448 261.838 102.036 262.952 102.036C264.077 102.036 264.957 102.448 265.598 103.265C266.233 104.073 266.556 105.057 266.556 106.224C266.556 107.38 266.233 108.364 265.598 109.182C264.957 109.989 264.077 110.39 262.952 110.39ZM262.952 109.39C263.463 109.39 263.895 109.218 264.244 108.869C264.588 108.51 264.827 108.109 264.952 107.661C265.077 107.203 265.14 106.724 265.14 106.224C265.14 105.713 265.077 105.234 264.952 104.786C264.827 104.328 264.588 103.927 264.244 103.578C263.895 103.218 263.463 103.036 262.952 103.036C262.437 103.036 262.004 103.218 261.661 103.578C261.312 103.927 261.077 104.328 260.952 104.786C260.827 105.234 260.765 105.713 260.765 106.224C260.765 106.682 260.832 107.14 260.973 107.599C261.108 108.057 261.353 108.474 261.702 108.849C262.046 109.213 262.463 109.39 262.952 109.39Z" fill="white"/>
<path d="M274.653 110.182H273.341V105.307C273.341 105.057 273.33 104.859 273.32 104.703C273.32 104.536 273.289 104.359 273.237 104.161C273.195 103.953 273.122 103.786 273.028 103.661C272.945 103.536 272.809 103.432 272.632 103.349C272.466 103.265 272.257 103.224 272.007 103.224C271.299 103.224 270.57 103.578 269.82 104.286V110.182H268.507V104.557C268.507 103.531 268.33 102.776 267.987 102.286L269.445 102.099C269.612 102.505 269.716 102.885 269.757 103.244C270.549 102.442 271.372 102.036 272.237 102.036C273.07 102.036 273.679 102.296 274.07 102.807C274.455 103.307 274.653 103.994 274.653 104.869V110.182Z" fill="white"/>
<path d="M283.405 110.182H282.093V105.307C282.093 105.057 282.082 104.859 282.072 104.703C282.072 104.536 282.041 104.359 281.989 104.161C281.947 103.953 281.874 103.786 281.78 103.661C281.697 103.536 281.562 103.432 281.384 103.349C281.218 103.265 281.009 103.224 280.759 103.224C280.051 103.224 279.322 103.578 278.572 104.286V110.182H277.259V104.557C277.259 103.531 277.082 102.776 276.739 102.286L278.197 102.099C278.364 102.505 278.468 102.885 278.509 103.244C279.301 102.442 280.124 102.036 280.989 102.036C281.822 102.036 282.431 102.296 282.822 102.807C283.207 103.307 283.405 103.994 283.405 104.869V110.182Z" fill="white"/>
<path d="M291.241 108.536L291.824 109.494C291.084 110.093 290.189 110.39 289.136 110.39C287.98 110.39 287.079 110.01 286.428 109.244C285.772 108.468 285.449 107.484 285.449 106.286C285.449 105.567 285.564 104.89 285.803 104.265C286.038 103.64 286.428 103.114 286.97 102.682C287.511 102.255 288.157 102.036 288.907 102.036C289.824 102.036 290.564 102.317 291.136 102.869C291.704 103.411 291.991 104.14 291.991 105.057C291.991 105.739 291.72 106.078 291.178 106.078H286.845V106.244C286.845 107.01 287.053 107.703 287.47 108.328C287.886 108.953 288.454 109.265 289.178 109.265C289.522 109.265 289.886 109.203 290.261 109.078C290.647 108.942 290.975 108.76 291.241 108.536ZM286.949 105.099H290.282C290.407 105.099 290.48 105.078 290.511 105.036C290.553 104.984 290.574 104.89 290.574 104.765C290.574 104.281 290.433 103.869 290.157 103.536C289.876 103.203 289.501 103.036 289.032 103.036C288.517 103.036 288.064 103.244 287.678 103.661C287.288 104.078 287.043 104.557 286.949 105.099Z" fill="white"/>
<path d="M298.957 108.578L299.582 109.599C299.067 109.89 298.629 110.093 298.27 110.203C297.921 110.328 297.483 110.39 296.957 110.39C295.884 110.39 295.02 109.968 294.353 109.119C293.686 108.276 293.353 107.307 293.353 106.224C293.353 105.015 293.686 104.015 294.353 103.224C295.03 102.432 295.968 102.036 297.166 102.036C297.983 102.036 298.749 102.307 299.457 102.849L298.749 103.786C298.426 103.526 298.145 103.343 297.895 103.244C297.645 103.135 297.332 103.078 296.957 103.078C296.259 103.078 295.718 103.401 295.332 104.036C294.957 104.661 294.77 105.343 294.77 106.078C294.77 106.567 294.837 107.046 294.978 107.515C295.129 107.974 295.379 108.385 295.728 108.744C296.087 109.109 296.52 109.286 297.02 109.286C297.405 109.286 297.733 109.239 297.999 109.14C298.259 109.031 298.582 108.843 298.957 108.578Z" fill="white"/>
<path d="M304.532 109.182L304.761 110.078C304.121 110.255 303.595 110.349 303.178 110.349C302.522 110.349 302.053 110.182 301.761 109.849C301.48 109.505 301.345 108.984 301.345 108.286V103.244H300.157V102.432C301.084 102.421 301.704 101.593 302.011 99.9527H303.032C302.793 100.911 302.678 101.671 302.678 102.224H304.761L304.47 103.244H302.678V108.328C302.678 108.661 302.741 108.911 302.866 109.078C302.991 109.244 303.209 109.328 303.532 109.328C303.767 109.328 304.1 109.281 304.532 109.182Z" fill="white"/>
<path d="M308.035 99.5569C308.035 99.8382 307.936 100.073 307.743 100.265C307.561 100.448 307.332 100.536 307.056 100.536C306.79 100.536 306.561 100.442 306.368 100.244C306.186 100.052 306.098 99.8225 306.098 99.5569C306.098 99.2965 306.186 99.0673 306.368 98.8694C306.561 98.6767 306.79 98.5777 307.056 98.5777C307.316 98.5777 307.545 98.6767 307.743 98.8694C307.936 99.0673 308.035 99.2965 308.035 99.5569ZM307.743 110.182H306.431V103.182C306.431 103.171 306.41 103.093 306.368 102.953C306.337 102.802 306.306 102.651 306.264 102.494C306.233 102.343 306.223 102.255 306.223 102.224H307.743V110.182Z" fill="white"/>
<path d="M316.509 110.182H315.197V105.307C315.197 105.057 315.186 104.859 315.176 104.703C315.176 104.536 315.145 104.359 315.093 104.161C315.051 103.953 314.978 103.786 314.884 103.661C314.801 103.536 314.666 103.432 314.488 103.349C314.322 103.265 314.113 103.224 313.863 103.224C313.155 103.224 312.426 103.578 311.676 104.286V110.182H310.363V104.557C310.363 103.531 310.186 102.776 309.843 102.286L311.301 102.099C311.468 102.505 311.572 102.885 311.613 103.244C312.405 102.442 313.228 102.036 314.093 102.036C314.926 102.036 315.535 102.296 315.926 102.807C316.311 103.307 316.509 103.994 316.509 104.869V110.182Z" fill="white"/>
<path d="M325.386 103.182H323.678C324.022 103.64 324.199 104.177 324.199 104.786C324.199 105.552 323.918 106.203 323.366 106.744C322.808 107.286 322.147 107.557 321.386 107.557C321.303 107.557 321.189 107.552 321.053 107.536C320.928 107.51 320.834 107.494 320.782 107.494C320.626 107.494 320.48 107.599 320.345 107.807C320.204 108.015 320.136 108.203 320.136 108.369C320.136 108.552 320.189 108.692 320.303 108.786C320.412 108.885 320.522 108.942 320.636 108.953C320.746 108.968 320.907 108.974 321.116 108.974C321.282 108.974 321.537 108.968 321.886 108.953C322.246 108.927 322.501 108.911 322.657 108.911C324.324 108.911 325.157 109.474 325.157 110.599C325.157 111.692 324.751 112.515 323.949 113.057C323.142 113.599 322.178 113.869 321.053 113.869C320.314 113.869 319.647 113.703 319.053 113.369C318.47 113.036 318.178 112.526 318.178 111.849C318.178 111.151 318.584 110.52 319.407 109.953C318.918 109.718 318.678 109.328 318.678 108.786C318.678 108.76 318.741 108.651 318.866 108.453C319.308 107.859 319.616 107.401 319.782 107.078C319.392 106.828 319.084 106.505 318.866 106.099C318.657 105.682 318.553 105.255 318.553 104.807C318.553 104.046 318.829 103.39 319.386 102.849C319.939 102.307 320.6 102.036 321.366 102.036C321.574 102.036 321.871 102.078 322.261 102.161C322.647 102.234 322.933 102.265 323.116 102.265C323.657 102.265 324.511 102.182 325.678 102.015L325.386 103.182ZM321.366 106.599C321.751 106.599 322.084 106.427 322.366 106.078C322.657 105.734 322.803 105.307 322.803 104.807C322.803 104.307 322.657 103.885 322.366 103.536C322.084 103.177 321.761 102.994 321.386 102.994C320.98 102.994 320.642 103.171 320.366 103.515C320.084 103.864 319.949 104.286 319.949 104.786C319.949 105.286 320.084 105.718 320.366 106.078C320.642 106.427 320.975 106.599 321.366 106.599ZM320.366 110.224C320.142 110.39 319.949 110.599 319.782 110.849C319.626 111.099 319.553 111.338 319.553 111.578C319.553 111.937 319.741 112.224 320.116 112.432C320.491 112.651 320.876 112.765 321.282 112.765C321.959 112.765 322.574 112.625 323.116 112.349C323.657 112.067 323.928 111.64 323.928 111.057C323.928 110.859 323.876 110.703 323.782 110.578C323.683 110.453 323.543 110.359 323.366 110.307C323.183 110.25 323.017 110.213 322.866 110.203C322.709 110.187 322.522 110.182 322.303 110.182C321.647 110.182 321.001 110.192 320.366 110.224Z" fill="white"/>
<path d="M336.923 110.182H330.548V99.5986C330.548 99.5882 330.527 99.5048 330.485 99.3486C330.454 99.1819 330.423 99.01 330.381 98.8277C330.339 98.6507 330.319 98.5517 330.319 98.5361H332.027V109.078H336.923V110.182Z" fill="white"/>
<path d="M340.355 99.5569C340.355 99.8382 340.256 100.073 340.063 100.265C339.881 100.448 339.652 100.536 339.376 100.536C339.11 100.536 338.881 100.442 338.688 100.244C338.506 100.052 338.418 99.8225 338.418 99.5569C338.418 99.2965 338.506 99.0673 338.688 98.8694C338.881 98.6767 339.11 98.5777 339.376 98.5777C339.636 98.5777 339.866 98.6767 340.063 98.8694C340.256 99.0673 340.355 99.2965 340.355 99.5569ZM340.063 110.182H338.751V103.182C338.751 103.171 338.73 103.093 338.688 102.953C338.657 102.802 338.626 102.651 338.584 102.494C338.553 102.343 338.543 102.255 338.543 102.224H340.063V110.182Z" fill="white"/>
<path d="M345.663 110.286H344.434L341.6 102.224H343.017L345.142 108.286L347.246 102.224H348.496L345.663 110.286Z" fill="white"/>
<path d="M355.193 108.536L355.776 109.494C355.037 110.093 354.141 110.39 353.089 110.39C351.932 110.39 351.031 110.01 350.38 109.244C349.724 108.468 349.401 107.484 349.401 106.286C349.401 105.567 349.516 104.89 349.755 104.265C349.99 103.64 350.38 103.114 350.922 102.682C351.464 102.255 352.109 102.036 352.859 102.036C353.776 102.036 354.516 102.317 355.089 102.869C355.656 103.411 355.943 104.14 355.943 105.057C355.943 105.739 355.672 106.078 355.13 106.078H350.797V106.244C350.797 107.01 351.005 107.703 351.422 108.328C351.839 108.953 352.406 109.265 353.13 109.265C353.474 109.265 353.839 109.203 354.214 109.078C354.599 108.942 354.927 108.76 355.193 108.536ZM350.901 105.099H354.234C354.359 105.099 354.432 105.078 354.464 105.036C354.505 104.984 354.526 104.89 354.526 104.765C354.526 104.281 354.385 103.869 354.109 103.536C353.828 103.203 353.453 103.036 352.984 103.036C352.469 103.036 352.016 103.244 351.63 103.661C351.24 104.078 350.995 104.557 350.901 105.099Z" fill="white"/>
<path d="M357.409 109.724L357.972 108.744C358.597 109.177 359.159 109.39 359.659 109.39C360.102 109.39 360.482 109.307 360.805 109.14C361.123 108.963 361.284 108.671 361.284 108.265C361.284 107.948 361.149 107.671 360.888 107.432C360.638 107.182 360.326 106.974 359.951 106.807C359.586 106.64 359.227 106.468 358.868 106.286C358.503 106.093 358.191 105.838 357.93 105.515C357.68 105.198 357.555 104.807 357.555 104.349C357.555 103.614 357.826 103.046 358.368 102.64C358.909 102.239 359.566 102.036 360.347 102.036C361.165 102.036 361.878 102.224 362.493 102.599L362.013 103.619C361.513 103.234 361.003 103.036 360.493 103.036C360.076 103.036 359.706 103.13 359.388 103.307C359.066 103.474 358.909 103.755 358.909 104.14C358.909 104.463 359.034 104.739 359.284 104.974C359.545 105.213 359.857 105.411 360.222 105.578C360.597 105.744 360.961 105.927 361.326 106.119C361.701 106.302 362.013 106.557 362.263 106.89C362.524 107.224 362.659 107.619 362.659 108.078C362.659 108.859 362.388 109.442 361.847 109.828C361.316 110.203 360.638 110.39 359.805 110.39C359.081 110.39 358.284 110.171 357.409 109.724Z" fill="white"/>
</g>
<defs>
<clipPath id="clip0_1_318">
<rect width="376" height="159" fill="white"/>
</clipPath>
</defs>
</svg>
